<svg width="47" height="46" viewBox="0 0 47 46" fill="none" xmlns="http://www.w3.org/2000/svg">
<circle cx="23" cy="23" r="22" fill="#472403"/>
<path d="M35.4035 6.17719C34.8605 6.01014 34.5592 5.50046 34.1805 5.1217C33.6944 4.63564 33.0207 4.16332 32.4548 3.77302C31.4461 3.07737 30.3757 2.18636 29.2213 1.73742C27.514 1.07345 25.4351 1.35208 23.6423 1.35208C20.8454 1.35208 18.1948 1.1355 15.6507 2.40758C14.7657 2.85007 13.8076 3.12197 12.8696 3.46307C11.9717 3.78955 11.326 4.5589 10.524 5.00442C9.08098 5.80611 6.91734 6.92862 6.11775 8.43896C5.71027 9.20864 5.10161 10.1156 4.56802 10.7677C3.84066 11.6567 3.58076 12.7815 2.98478 13.7499C2.54431 14.4657 2.08007 15.5104 2.08007 16.3552C2.08007 17.2095 1.41749 18.021 1.32615 18.8431C1.27938 19.264 0.975232 19.706 0.882171 20.1248C0.787474 20.5509 0.810575 21.0379 0.731386 21.4735C0.589084 22.2561 0.72301 23.1733 0.72301 23.9698C0.72301 25.0254 1.09335 25.9002 1.31777 26.9101C1.43267 27.4271 1.28781 28.8511 1.7785 29.0965" stroke="#FCF5EA" stroke-linecap="round"/>
<path d="M1.47693 29.3979C1.56243 30.4239 2.17451 31.4558 2.23085 32.4136C2.29479 33.5005 3.01688 34.512 3.13556 35.5801C3.2111 36.26 4.21667 37.0466 4.67691 37.5068C5.19246 38.0224 5.65523 39.0074 6.03398 39.6513C6.62344 40.6534 7.881 41.1258 8.71459 41.9131C9.22496 42.3951 10.1994 42.7309 10.8256 43.044C11.6451 43.4537 12.4878 43.7787 13.3554 44.0576C14.6691 44.4798 15.9282 44.6272 17.3093 44.6272C18.056 44.6272 19.544 44.3579 20.1742 44.778" stroke="#FCF5EA" stroke-linecap="round"/>
<path d="M20.1743 44.778C22.8136 44.778 25.704 45.1063 28.2413 44.3256C29.4422 43.9561 30.5633 43.5611 31.701 43.0439C32.5399 42.6626 33.4244 42.686 34.1219 41.9885C35.7009 40.4094 37.4985 39.3786 38.6036 37.3895C39.5767 35.6378 40.7027 33.8782 41.5857 32.1121" stroke="#FCF5EA" stroke-linecap="round"/>
<path d="M41.5856 32.1121C41.5856 30.2658 42.4612 28.8423 42.7835 27.0692C42.939 26.2143 43.5458 25.4041 43.5458 24.5059C43.5458 23.6639 43.8474 22.8765 43.8474 22.0095C43.8474 21.2436 43.9982 20.4073 43.9982 19.597C43.9982 18.1556 43.0787 16.6234 42.4904 15.2996C42.2115 14.6723 41.9063 14.0609 41.6192 13.4148C41.3481 12.805 41.1557 11.6166 40.5302 11.3038" stroke="#FCF5EA" stroke-linecap="round"/>
<path d="M40.5302 11.3038C40.0642 9.67278 38.2178 8.56408 37.2129 7.308C36.7006 6.66761 35.7508 6.42274 35.2527 5.80015C34.7518 5.17408 33.5823 4.68023 32.9239 4.14152C32.0964 3.46445 31.398 3.29982 30.3941 2.97713C29.6786 2.74717 28.9059 2.83927 28.1658 2.63368C27.579 2.47068 26.9675 2.25671 26.3564 2.25671C24.5538 2.25671 22.7198 2.10593 20.8947 2.10593C20.1851 2.10593 17.6035 1.82664 17.3093 2.70907" stroke="#FCF5EA" stroke-linecap="round"/>
<path d="M17.611 2.85986C14.5536 3.09505 12.5348 5.934 10.1471 7.52581C8.93161 8.33615 8.16703 10.042 7.13142 11.0776C5.67674 12.5323 4.53842 14.4843 3.70526 16.3467C2.84349 18.273 1.77856 20.9856 1.77856 23.2158C1.77856 25.2235 1.77856 27.2311 1.77856 29.2388C1.77856 31.092 2.93168 33.0116 3.81416 34.6C4.09932 35.1133 4.48661 35.883 5.01206 36.1833C5.67698 36.5632 5.79156 37.508 6.45289 37.8754C7.61164 38.5192 9.26751 39.7811 9.92094 40.9246C10.1871 41.3903 11.5562 42.1225 12.0403 42.2901C12.6581 42.5039 13.2458 42.631 13.7659 43.0356C14.0115 43.2266 14.4508 43.6856 14.746 43.7225C16.1823 43.902 17.311 44.6272 18.8172 44.6272" stroke="#FCF5EA" stroke-linecap="round"/>
<path d="M19.6532 45.0036C22.0177 45.0036 25.0305 45.4754 27.3561 44.9586C28.5031 44.7037 29.8016 44.2819 30.9599 44.1928C32.2031 44.0971 33.6348 43.3517 34.8113 42.9315C36.0522 42.4883 37.7112 41.5853 38.6628 40.7017C40.8337 38.6859 42.4043 35.7559 43.4152 32.9987C43.6044 32.4828 44.0063 32.0448 44.181 31.5347C45.0734 28.9288 45.5598 25.8077 45.8027 23.066C45.8801 22.1926 45.8191 21.2818 45.645 20.4307C45.2784 18.6384 44.416 17.2069 43.6179 15.6108C42.2917 12.9583 40.7711 10.3457 37.9421 9.12406C35.4681 8.05576 33.2523 6.38812 30.8022 5.22753C28.5438 4.15778 25.3332 3.74635 22.8515 3.6509C20.4771 3.55958 17.9833 3.24548 15.599 3.24548" stroke="#FCF5EA" stroke-linecap="round"/>
<path d="M13.3618 13.5334C15.8969 14.6604 17.3973 16.9106 19.5289 18.5527C20.0457 18.9509 20.3992 19.5371 20.8726 19.9771C22.0944 21.113 23.1266 22.4672 24.3179 23.6399C25.1527 24.4616 26.05 25.3804 27.0052 26.0666C27.2371 26.2332 27.553 26.2818 27.7632 26.4886C28.1125 26.8325 28.3913 27.2298 28.7891 27.5324C29.4456 28.0318 30.0852 28.4926 30.6419 29.0812C30.8131 29.2621 30.9545 29.4983 31.0707 29.7143C31.1673 29.8939 31.3623 29.977 31.4879 30.1212C31.6345 30.2895 31.843 30.4368 32.0047 30.596C32.2977 30.8844 32.635 31.3283 33 31.5079" stroke="#FCF5EA" stroke-linecap="round"/>
<path d="M13 13.9114C15.5351 15.0383 17.0354 17.2885 19.1671 18.9307C19.6839 19.3288 20.0374 19.915 20.5108 20.3551C21.7326 21.491 22.7648 22.8452 23.9561 24.0178C24.7909 24.8396 25.6881 25.7584 26.6434 26.4445C26.8753 26.6111 27.1912 26.6597 27.4014 26.8666C27.7507 27.2105 28.0294 27.6077 28.4273 27.9104C29.0838 28.4097 29.7234 28.8705 30.2801 29.4591C30.4513 29.6401 30.5927 29.8762 30.7089 30.0922C30.8055 30.2719 31.0005 30.3549 31.1261 30.4992C31.2726 30.6674 31.4812 30.8147 31.6429 30.9739C31.9358 31.2623 32.2732 31.7062 32.6382 31.8859" stroke="#FCF5EA" stroke-linecap="round"/>
<path d="M32.7244 13.4655C31.5349 15.5469 29.4801 16.8162 27.7095 18.3491C26.6833 19.2376 25.9306 20.442 24.8002 21.1979C24.201 21.5985 23.6548 21.979 23.1617 22.5017C22.9005 22.7786 22.7069 23.1404 22.442 23.4211C22.2082 23.669 21.9435 23.8817 21.7032 24.1183C20.9479 24.8617 20.4773 25.7701 19.682 26.4772C19.2311 26.8781 18.8727 27.3837 18.4187 27.781C17.4029 28.6697 16.4767 29.6303 15.5285 30.5921C14.7741 31.3572 13.8978 32.1067 13.2928 33" stroke="#FCF5EA" stroke-linecap="round"/>
<path d="M32.4315 13C31.2421 15.0815 29.1873 16.3507 27.4167 17.8836C26.3904 18.7721 25.6378 19.9766 24.5073 20.7324C23.9081 21.1331 23.362 21.5135 22.8689 22.0362C22.6076 22.3132 22.414 22.6749 22.1492 22.9557C21.9153 23.2036 21.6507 23.4162 21.4104 23.6528C20.6551 24.3963 20.1844 25.3046 19.3891 26.0117C18.9382 26.4126 18.5799 26.9182 18.1258 27.3155C17.1101 28.2043 16.1839 29.1649 15.2356 30.1266C14.4812 30.8917 13.605 31.6413 13 32.5345" stroke="#FCF5EA" stroke-linecap="round"/>
</svg>
