<svg width="320" height="123" viewBox="0 0 320 123" fill="none" xmlns="http://www.w3.org/2000/svg">
<path d="M91.7361 19.8244C94.1214 18.6317 95.9643 17.57 97.8238 15.639C99.2854 14.1212 99.8799 11.4424 100.982 9.62736C101.802 8.27636 102.743 6.86703 103.455 5.44203C104.015 4.32109 104.073 3.37326 104.749 2.36011" stroke="#151515" stroke-width="2" stroke-linecap="round"/>
<path d="M104.406 2.36011C106.512 2.57066 108.593 4.51557 110.228 5.70837C114.045 8.49425 118.186 11.0641 122.137 13.6605C125.102 15.6092 127.809 17.6389 130.355 20.0907C133.531 23.149 138.459 24.351 141.732 27.3579C143.002 28.5257 145.841 29.7633 145.841 31.8096" stroke="#151515" stroke-width="2" stroke-linecap="round"/>
<path d="M142.074 34.549C139.34 34.549 136.301 32.8851 134.369 30.9534C132.01 28.5944 130.936 25.2531 128.719 22.9062C126.913 20.9935 124.53 19.744 122.727 17.9409C121.565 16.7796 119.213 15.3717 117.59 15.0111C115.49 14.5444 114.273 14.6238 112.625 12.9755C111.994 12.3446 111.303 11.2762 110.57 10.8448C109.781 10.3804 108.724 9.92228 108.002 9.36094C105.913 7.73671 106.548 10.9861 105.51 12.0243C104.534 13.0004 103.379 13.8819 103.379 15.3726" stroke="#151515" stroke-width="2" stroke-linecap="round"/>
<path d="M145.498 32.152C145.498 34.7445 144.814 37.0841 144.814 39.6856C144.814 40.6465 144.929 41.6934 143.71 41.7402C142.996 41.7677 142.276 41.7402 141.56 41.7402C140.751 41.7402 140.207 42.3614 139.411 42.4251C137.267 42.5967 133.905 42.3073 131.725 43.0339C129.359 43.8227 127.393 44.143 125.485 42.2349C124.629 41.3786 124.243 40.3696 123.906 39.191C123.868 39.0589 123.082 38.6906 122.898 38.5822C122.26 38.207 121.882 37.4141 121.528 36.7939C121.267 36.3377 120.287 35.1313 119.987 34.8915C119.559 34.5491 119.287 32.9115 118.96 32.3232C117.893 30.4036 116.861 28.1536 114.869 27.0155C114.455 26.7787 113.94 25.2867 113.462 24.8087C113.097 24.4437 111.255 23.6641 111.255 23.9336" stroke="#151515" stroke-width="2" stroke-linecap="round"/>
<path d="M111.255 23.9335C110.272 23.8107 109.106 22.1434 108.002 21.8979C106.382 21.5379 105.307 20.8516 103.493 20.8516C101.287 20.8516 99.5665 20.0543 97.5574 21.1179C96.1498 21.8632 94.9514 21.6699 93.7906 20.5092" stroke="#151515" stroke-width="2" stroke-linecap="round"/>
<path d="M91.3937 20.8516C92.9315 23.9272 93.9577 26.557 96.4541 28.8037C97.9671 30.1653 99.3822 29.9824 100.982 30.7822" stroke="#151515" stroke-width="2" stroke-linecap="round"/>
<path d="M106.803 23.2488C106.711 23.9844 105.583 24.7821 105.091 25.3034C104.3 26.1414 104.104 27.5261 103.569 28.5185C102.69 30.151 102.694 31.6864 102.694 33.5219C102.694 37.6781 106.294 38.8319 109.372 40.5418C110.223 41.0151 117.761 44.8387 117.761 42.5964C117.761 42.3477 118.103 41.1931 118.275 41.0555C118.62 40.7792 118.075 39.8261 118.104 39.3433C118.171 38.2063 120.947 38.7105 121.528 39.0008" stroke="#151515" stroke-width="2" stroke-linecap="round"/>
<path d="M130.284 44.1974C127.005 44.1974 124.114 45.534 121.272 47.1384C120.058 47.8235 118.926 48.8097 118.09 49.9247C117.446 50.7832 116.83 50.9785 115.897 51.3866C113.615 52.3851 111.277 53.9641 108.682 53.0205C107.937 52.7497 107.366 52.6098 106.687 52.1777C106.305 51.9348 106.156 51.6212 105.75 51.3952C105.197 51.0883 104.841 50.84 104.752 51.6446C104.607 52.9535 104.511 54.0461 104.09 55.308C103.528 56.9924 101.907 58.6932 100.1 58.894C99.6699 58.9417 98.4314 58.8208 98.2508 59.4529C98.0368 60.202 97.726 60.6572 97.1587 61.2244" stroke="#151515" stroke-width="2" stroke-linecap="round"/>
<path d="M97.004 61.3791C95.2268 61.3791 93.6484 61.2537 92.429 62.6948C92.0931 63.0918 91.2755 63.8987 91.1305 64.4061C91.071 64.6142 91.1346 64.8787 91.1219 65.0941C91.1076 65.3374 90.823 65.0887 91.1219 64.9393" stroke="#151515" stroke-width="2" stroke-linecap="round"/>
<path d="M92.6698 62.6175C92.6698 61.665 92.7266 60.6949 92.6612 59.7453C92.533 57.887 91.3213 56.3738 90.0727 55.0671C89.4565 54.4222 89.3108 54.104 88.413 54.104C87.5869 54.104 87.193 54.6636 86.5469 55.0328C85.6876 55.5238 84.7398 55.7405 83.8811 56.2367C82.9495 56.7749 81.8118 57.1441 80.7594 57.3546C78.8503 57.7364 77.1593 58.9025 75.1783 58.9025" stroke="#151515" stroke-width="2" stroke-linecap="round"/>
<path d="M197.978 77.6778C197.641 76.7868 197.352 75.8591 196.955 74.9939C196.178 73.3008 194.51 72.3134 192.88 71.5322C192.076 71.1467 191.827 70.9004 190.987 71.2177C190.215 71.5096 190.044 72.1722 189.57 72.7459C188.939 73.5089 188.129 74.0465 187.501 74.8141C186.82 75.6468 185.886 76.3942 184.976 76.963C183.325 77.9948 182.155 79.6832 180.302 80.3831" stroke="#151515" stroke-width="2" stroke-linecap="round"/>
<path d="M55.2393 65.3861C52.5791 65.3861 49.919 65.3861 47.2589 65.3861C45.3695 65.3861 43.4416 65.573 41.6194 65.0668C40.6567 64.7994 39.0678 64.493 38.0489 64.7949C37.4391 64.9756 36.7235 65.3525 36.0863 65.3861C35.902 65.3958 35.243 65.1732 35.4479 65.1732" stroke="#151515" stroke-width="2" stroke-linecap="round"/>
<path d="M163.94 93.4941C161.451 94.4341 158.963 95.374 156.474 96.314C154.707 96.9816 152.969 97.8377 151.086 98.0081C150.091 98.0981 148.496 98.3729 147.65 99.0154C147.143 99.3998 146.607 100.005 146.023 100.262C145.854 100.336 145.158 100.361 145.35 100.288" stroke="#151515" stroke-width="2" stroke-linecap="round"/>
<path d="M74.3922 58.7889C74.3922 57.8763 74.1542 56.5892 74.404 55.715C74.5218 55.3025 75.0306 55.0748 75.0306 54.5327C75.0306 54.1343 73.4856 54.3199 73.1862 54.3199C69.6537 54.3199 66.5306 55.8647 63.0895 56.247C58.6536 56.7399 54.1937 56.5693 49.7061 56.448C48.6682 56.42 47.4357 55.7385 46.5139 55.2775C45.511 54.7761 44.8085 54.7455 43.7001 54.7455C42.6494 54.7455 39.5045 54.5327 40.5552 54.5327" stroke="#151515" stroke-width="2" stroke-linecap="round"/>
<path d="M179.526 80.5548C179.204 79.701 178.526 78.581 178.451 77.6749C178.416 77.2474 178.811 76.8547 178.62 76.3475C178.479 75.9748 177.099 76.6944 176.819 76.8001C173.514 78.0484 171.139 80.5971 168.055 82.1706C164.079 84.1992 159.846 85.6155 155.606 87.0877C154.625 87.4282 153.231 87.2262 152.206 87.1207C151.09 87.006 150.422 87.2257 149.385 87.6173C148.403 87.9886 145.385 88.9007 146.368 88.5295" stroke="#151515" stroke-width="2" stroke-linecap="round"/>
<path d="M40.5552 54.5328C39.2074 54.5328 38.7449 57.8982 38.0015 58.9546C36.9502 60.4485 34.8093 62.3769 34.8093 64.3221" stroke="#151515" stroke-width="2" stroke-linecap="round"/>
<path d="M33.9581 63.8965C33.9581 61.9878 32.6268 61.0287 31.0852 60.1723C30.667 59.94 29.958 59.7309 29.4891 59.593C28.5812 59.3259 27.9945 58.4126 27.1009 58.1033C26.1751 57.7828 25.0366 57.2993 24.0624 57.2993C22.9476 57.2993 22.5432 57.9006 21.8279 58.5762C20.2531 60.0635 17.4898 61.1113 16.5549 58.4107C16.1973 57.3775 14.8052 57.2215 14.8052 56.2353C14.8052 55.1098 15.2308 54.1842 15.2308 53.1495C15.2308 52.149 15.5257 49.5127 13.9539 49.4253C12.4349 49.3409 11.2958 49.4742 10.0169 48.4795C9.14857 47.8041 8.49774 46.7015 7.56958 46.1859C6.29525 45.4779 4.6179 45.5571 3.41977 44.6253C2.32623 43.7747 2.1518 41.9749 0.925153 41.1257C-0.322533 40.2619 -1.25963 39.3193 -2.32612 38.2528C-3.16342 37.4155 -4.14512 37.0173 -5.24636 36.6094C-5.98889 36.3344 -6.96282 35.7138 -7.53999 35.167C-7.74874 34.9692 -8.39124 33.9435 -8.39124 34.103" stroke="#151515" stroke-width="2" stroke-linecap="round"/>
<path d="M143.505 99.6202C142.831 97.8347 141.247 97.4079 139.502 97.1515C139.029 97.0819 138.291 97.1368 137.804 97.1735C136.86 97.2445 135.989 96.5974 135.044 96.6238C134.064 96.6511 132.828 96.6011 131.917 96.9454C130.874 97.3393 130.708 98.0446 130.278 98.9294C129.33 100.877 127.115 102.834 125.287 100.638C124.587 99.7976 123.229 100.144 122.881 99.221C122.483 98.1682 122.554 97.1519 122.189 96.1839C121.835 95.248 121.18 92.6775 119.678 93.1512C118.227 93.609 117.209 94.1361 115.661 93.6575C114.61 93.3325 113.612 92.531 112.561 92.3766C111.119 92.1646 109.578 92.8314 108.128 92.383C106.804 91.9738 106.005 90.3517 104.557 89.9907C103.085 89.6235 101.875 89.0728 100.501 88.4519C99.4215 87.9645 98.3624 87.9389 97.1881 87.9465C96.3963 87.9516 95.2659 87.7152 94.5327 87.4076C94.2676 87.2963 93.3041 86.5637 93.3604 86.713" stroke="#151515" stroke-width="2" stroke-linecap="round"/>
<path d="M-8.39127 34.1029C-10.4853 34.1029 -12.4978 32.4608 -14.1845 31.3364C-15.1647 30.6829 -16.4921 29.0278 -17.6485 28.7708C-18.8381 28.5065 -19.9741 28.8406 -19.8831 27.293C-19.8325 26.4335 -17.9678 26.4526 -17.9678 25.2713C-17.9678 24.9813 -18.1316 23.9102 -17.7549 23.888C-17.0407 23.846 -16.2362 23.5225 -15.7924 22.9422C-15.1004 22.0373 -15.011 21.8248 -14.0189 22.1855C-13.3226 22.4387 -12.8345 22.7493 -12.2219 23.1432C-10.7607 24.0825 -9.30892 24.8347 -7.75284 25.5905C-6.55017 26.1746 -5.31721 26.488 -4.13505 27.1866C-3.17445 27.7542 -1.5451 28.5343 -0.848306 29.4211C0.0321414 30.5417 1.35761 31.296 2.35568 32.294C3.66518 33.6035 4.64472 33.5375 6.29268 34.3157C7.3564 34.8181 8.20026 35.491 9.17745 36.1128C9.68701 36.4371 10.6541 36.6161 10.9745 37.1769C11.653 38.3643 12.9783 38.3592 14.1667 38.3592C14.9134 38.3592 15.1546 38.985 15.7746 39.2104C16.7374 39.5605 17.4024 40.0185 18.2219 40.5818C18.9337 41.0712 19.7461 40.9111 20.1727 41.7641C20.5908 42.6003 20.7757 43.488 21.2367 44.3179C21.6678 45.0937 23.0187 44.6272 23.7313 44.8499C24.5843 45.1164 25.5147 44.9304 26.3915 45.1809C26.8517 45.3124 26.9833 45.9637 27.361 46.1859C27.8554 46.4767 28.3552 46.8367 28.8506 47.0844" stroke="#151515" stroke-width="2" stroke-linecap="round"/>
<path d="M93.3604 86.7129C91.4015 87.4529 88.9385 86.6278 86.9634 86.1719C85.8155 85.9069 83.9888 84.8277 82.8162 84.9959C81.61 85.1689 80.6654 85.8829 80.2037 84.403C79.9472 83.581 81.6984 82.94 81.281 81.8349C81.1785 81.5636 80.6468 80.6195 80.9913 80.4657C81.6447 80.174 82.283 79.5871 82.4931 78.8874C82.8207 77.7964 82.8292 77.5659 83.8847 77.5529C84.6256 77.5437 85.1919 77.6618 85.9043 77.8138C87.603 78.1762 89.227 78.3668 90.9498 78.5241C92.2813 78.6456 93.5454 78.5031 94.8982 78.7388C95.9974 78.9304 97.7972 79.0844 98.7624 79.6678C99.9821 80.405 101.489 80.6423 102.775 81.2233C104.463 81.9856 105.356 81.5777 107.172 81.7234C108.345 81.8175 109.372 82.1488 110.506 82.3852C111.097 82.5085 112.065 82.3343 112.563 82.7456C113.617 83.6167 114.855 83.1436 115.967 82.7237C116.666 82.4598 117.112 82.96 117.772 82.9519C118.796 82.9392 119.58 83.1326 120.546 83.3701C121.385 83.5763 122.088 83.1394 122.789 83.7868C123.475 84.4213 123.962 85.1863 124.687 85.7998C125.364 86.3733 126.463 85.4595 127.208 85.416C128.1 85.364 128.905 84.8612 129.814 84.7857C130.291 84.7461 130.644 85.3089 131.076 85.3833C131.641 85.4806 132.236 85.6408 132.787 85.6974" stroke="#151515" stroke-width="2" stroke-linecap="round"/>
<path d="M28.8506 47.0844C30.1285 47.0844 31.0941 47.0947 32.2556 47.6755C33.0792 48.0873 33.9047 48.6226 34.762 48.9524C35.8121 49.3563 35.8159 50.4859 36.6182 51.1278C37.9311 52.1781 39.1532 52.8804 39.7039 54.5327" stroke="#151515" stroke-width="2" stroke-linecap="round"/>
<path d="M-14.6919 21.8871C-11.6279 21.8871 -8.56394 21.8871 -5.49997 21.8871C-4.34254 21.8871 -3.11383 22.0173 -1.98378 21.7348C-0.102703 21.2645 2.67465 20.7116 4.3772 21.8317C5.50818 22.5758 6.67192 23.2791 7.85185 23.9428C8.19914 24.1381 8.64537 24.3788 9.0493 24.3788C11.1254 24.3788 13.1451 23.8805 15.2372 23.8805C16.1442 23.8805 17.0241 23.966 17.9228 24.0051C18.703 24.039 19.5303 24.2722 20.3177 24.102C21.6847 23.8064 23.2219 23.6313 24.623 23.6313C25.3538 23.6313 26.1553 23.7719 26.8102 23.4444C27.4646 23.1172 28.0076 22.8838 28.7344 22.8838C29.7024 22.8838 30.4442 22.6795 31.2816 22.2608" stroke="#151515" stroke-width="2" stroke-linecap="round"/>
<path d="M83.1499 77.5117C86.0162 76.429 88.8825 75.3463 91.7488 74.2637C92.8316 73.8547 94.027 73.5424 94.9844 72.8788C96.5779 71.7742 98.9807 70.2755 100.969 70.7218C102.29 71.0182 103.627 71.2649 104.966 71.4689C105.36 71.5289 105.862 71.5964 106.24 71.4537C108.182 70.7201 109.895 69.5402 111.853 68.801C112.701 68.4805 113.554 68.2496 114.409 67.9686C115.151 67.7246 116.007 67.6505 116.684 67.213C117.858 66.4534 119.234 65.7465 120.545 65.2514C121.229 64.9932 122.028 64.8414 122.525 64.3037C123.022 63.7663 123.447 63.3561 124.127 63.0993C125.032 62.7573 125.654 62.304 126.29 61.6165" stroke="#151515" stroke-width="2" stroke-linecap="round"/>
<path d="M74.514 54.5296C74.514 53.4118 74.0457 52.6908 73.2612 51.9063C71.9149 50.56 70.565 49.1473 69.1567 47.871C67.4424 46.3174 65.544 45.0335 63.3702 44.251C61.9771 43.7495 60.4874 43.8017 59.0927 43.3166C58.315 43.0461 57.6285 42.9004 56.9193 42.4444C56.2333 42.0034 55.5492 41.5326 54.8566 41.1016C53.8117 40.4515 52.7579 39.8623 51.6519 39.3228C50.3307 38.6783 49.0786 37.7459 47.7135 37.2117C46.4936 36.7343 45.4546 36.219 44.4811 35.3428C43.7187 34.6567 42.6853 34.2509 41.8786 33.6055C40.5418 32.5361 39.2008 31.9515 38.3831 30.3593C38.0317 29.6749 37.5519 29.1489 36.985 28.6427C36.7529 28.4355 35.8507 27.9921 35.5176 27.9921" stroke="#151515" stroke-width="2" stroke-linecap="round"/>
<path d="M178.135 76.527C177.74 75.4814 177.047 74.9723 176.036 74.5157C174.301 73.7319 172.539 72.8873 170.771 72.191C168.618 71.3434 166.388 70.8132 164.078 70.8492C162.598 70.8723 161.223 71.4475 159.747 71.4865C158.923 71.5083 158.23 71.6146 157.405 71.4387C156.608 71.2685 155.801 71.0697 155.001 70.9113C153.794 70.6723 152.6 70.4935 151.375 70.3796C149.911 70.2436 148.41 69.8137 146.944 69.7964C145.634 69.7808 144.48 69.6659 143.26 69.1902C142.304 68.8177 141.194 68.8033 140.212 68.4846C138.583 67.9565 137.122 67.8835 135.794 66.6829C135.224 66.1669 134.589 65.8443 133.88 65.5711C133.59 65.4593 132.589 65.3632 132.277 65.481" stroke="#151515" stroke-width="2" stroke-linecap="round"/>
<path d="M35.5177 27.8676C35.1228 27.8182 34.2567 26.6829 34.0226 26.3448C33.7147 25.9 33.6072 25.3478 33.372 24.8774C32.879 23.8915 32.1786 23.1579 31.4062 22.3856" stroke="#151515" stroke-width="2" stroke-linecap="round"/>
<path d="M33.1293 21.5158C33.1293 20.2518 33.6012 19.3163 34.1536 18.1961C35.1477 16.1804 35.9869 14.0876 37.2268 12.2016C38.3799 10.4476 39.3741 8.73864 40.3852 6.91852C41.1164 5.60238 42.4308 4.77131 43.2023 3.50395C43.4675 3.06824 44.0559 2.32071 44.0559 1.79666C44.0559 1.47063 44.0559 0.461973 44.0559 1.36984" stroke="#151515" stroke-width="2" stroke-linecap="round"/>
<path d="M44.056 1.88196C47.9792 1.88196 51.7854 4.20949 54.9827 6.32091C55.8148 6.87045 56.6741 7.5145 57.5436 7.99026C58.6557 8.59874 59.4436 9.62192 60.446 10.3805C62.3625 11.8308 64.9025 12.4188 67.0665 13.3587C69.4389 14.3892 72.5 14.7685 74.2845 16.8207C75.7601 18.5177 77.4402 19.0094 79.5771 19.1351C82.1174 19.2845 84.216 20.6924 86.1407 22.1987C87.5451 23.2978 88.6394 24.7257 90.1528 25.6986C90.436 25.8807 91.8601 26.6622 91.8601 26.6376" stroke="#151515" stroke-width="2" stroke-linecap="round"/>
<path d="M55.4947 17.0769C55.4947 16.1443 55.375 15.9128 54.6031 15.3696C53.4608 14.5658 52.6711 13.2705 51.3972 12.6C49.5182 11.6111 47.6876 10.8198 45.8011 12.1258C44.9973 12.6823 44.5821 13.7797 44.2266 14.6488C43.8036 15.6827 43.0669 16.5725 42.728 17.6271C41.93 20.1097 41.6994 22.84 41.8364 25.4426C41.8817 26.3032 43.9446 27.3504 44.5681 27.6621C45.4614 28.1088 46.3919 28.4158 47.2997 28.8193C48.0524 29.1538 49.2411 28.3133 49.8607 28.0036C50.9222 27.4728 51.8712 26.7403 52.7251 25.9169C53.3487 25.3155 54.2148 24.3706 54.9825 23.944C55.6409 23.5783 55.9072 22.3961 56.1397 21.7245C56.438 20.8628 57.1254 17.9776 56.0069 17.4184" stroke="#151515" stroke-width="2" stroke-linecap="round"/>
<path d="M56.6899 32.6132C57.5609 33.397 58.7633 33.9433 59.7251 34.624C61.3417 35.768 63.1648 36.6562 65.141 36.9478C66.5026 37.1486 67.865 37.2228 69.2385 37.2228C69.5811 37.2228 71.0723 37.4473 71.3347 37.1849C72.1363 36.3833 72.5677 34.1113 72.5677 33.04C72.5677 32.0546 73.5921 31.374 73.5921 30.3937" stroke="#151515" stroke-width="2" stroke-linecap="round"/>
<path d="M77.1774 42.6861C78.8401 42.6861 80.4482 43.9517 81.9103 44.6305C82.7802 45.0344 83.7468 44.9056 84.6894 44.9056C85.7794 44.9056 86.5908 44.4127 87.5823 43.9666C88.6043 43.5067 88.994 43.4206 89.6406 42.5154" stroke="#151515" stroke-width="2" stroke-linecap="round"/>
<path d="M131.716 44.2102C132.671 44.2102 133.625 44.2102 134.58 44.2102C135.221 44.2102 136.453 44.0036 136.967 44.5179C138.255 45.8057 139.377 47.9839 140.118 49.6528C140.709 50.9818 141.102 52.5006 142.368 53.3767C143.326 54.0401 143.797 54.7348 144.086 55.8593C144.195 56.2835 144.292 57.2087 144.553 57.5356C144.73 57.757 145.203 58.3522 145.264 58.6284C145.515 59.7591 145.084 60.9802 145.084 62.0658C145.084 63.0425 145.195 63.5913 145.508 64.4954C145.691 65.0246 145.164 66.483 144.702 65.7898" stroke="#151515" stroke-width="2" stroke-linecap="round"/>
<path d="M97.1501 65.9806C99.3939 65.9806 101.269 64.6006 103.304 63.9224C105.241 63.2765 107.136 62.3991 109.181 62.1718C110.044 62.0759 110.965 61.8119 111.812 61.7793C112.513 61.7523 113.425 61.7492 114.04 61.3973C115.277 60.6908 116.493 59.8949 117.775 59.2542C118.39 58.9468 119.138 58.6722 119.791 58.4373C121.377 57.8662 123.114 56.6711 124.841 56.6231C126.747 56.5701 128.139 55.2957 129.901 54.6179C130.764 54.2863 131.51 53.7476 132.331 53.419C133.107 53.1086 134.158 53.1017 134.867 52.7082C136.009 52.0737 137.334 51.8839 138.4 51.085" stroke="#151515" stroke-width="2" stroke-linecap="round"/>
<path d="M191.285 65.9124C191.285 63.8426 191.687 61.3341 191.074 59.3514C190.497 57.4861 189.477 56.2702 188.005 55.0245C185.075 52.5454 181.323 53.674 177.952 54.0486C176.769 54.18 175.046 54.592 174.401 55.7535C173.844 56.7559 172.303 56.3884 171.285 56.3884C170.212 56.3884 169.375 56.9925 168.804 55.9651C168.131 54.7532 167.031 54.9259 165.888 54.3543C164.368 53.5942 163.423 51.6724 162.079 50.627C160.016 49.0228 157.258 47.6694 155.741 45.4887C154.741 44.0512 154.764 42.188 154.671 40.5151C154.581 38.8941 152.104 37.4453 151.191 36.2822C150.526 35.436 150.185 34.725 149.427 34.1187C148.944 33.7325 149.107 32.645 149.38 32.1669C149.69 31.6238 151.073 31.6252 151.073 30.7795C151.073 29.7472 150.927 29.384 150.121 28.7571C149.433 28.2222 147.74 28.3057 147.263 27.7106C146.755 27.075 146.536 26.1907 145.782 25.747C144.259 24.8512 143.137 23.2577 143.242 21.4671C143.307 20.3738 146.832 21.1992 147.569 21.4671C148.764 21.9017 150.173 23.4701 150.979 24.3831C152.331 25.9137 153.882 27.2388 155.318 28.6748C156.28 29.6368 157.478 30.3066 158.492 31.2145C160.14 32.689 161.778 34.1241 163.56 35.4356C165.389 36.7818 167.651 36.9566 169.615 37.9754C172.413 39.426 175.778 39.2452 178.822 39.2452C179.949 39.2452 181.272 39.0589 182.349 39.4569C183.731 39.9675 184.818 41.0467 186.006 41.8908C188.097 43.3763 190.534 45.4091 193.026 46.1825C194.649 46.6863 196.287 46.7658 197.835 47.6169C199.109 48.3177 199.727 50.1349 200.809 51.0973C202.631 52.7167 206.524 50.6571 206.524 54.0603" stroke="#151515" stroke-width="2" stroke-linecap="round"/>
<path d="M95.292 50.9867C95.9228 51.0568 96.7053 51.9557 97.2776 52.2736C98.1132 52.7379 99.2181 53.3367 99.925 53.965C101.086 54.9975 102.234 54.6269 103.565 54.6269" stroke="#151515" stroke-width="2" stroke-linecap="round"/>
<path d="M88.5079 43.5408C88.6105 42.618 90.4935 42.3271 90.4935 41.4725C90.4935 40.4365 91.1415 40.0892 91.6517 39.2388" stroke="#151515" stroke-width="2" stroke-linecap="round"/>
<path d="M-8.06494 49.6296C-7.90903 50.5651 -6.97557 51.4014 -6.40453 52.1152C-5.59631 53.1254 -4.66499 54.0357 -3.84769 55.0387C-1.95271 57.3644 0.440939 57.9317 3.16069 58.8383C5.61619 59.6568 7.9615 61.9147 10.6377 61.9147C12.0096 61.9147 13.3234 62.2814 14.6716 62.2814" stroke="#151515" stroke-width="2" stroke-linecap="round"/>
<path d="M14.6715 62.2814C14.6715 61.7573 15.2307 61.0181 15.4966 60.5395C15.7635 60.0592 15.7717 59.3458 15.7717 58.7976" stroke="#151515" stroke-width="2" stroke-linecap="round"/>
<path d="M336.68 64.6798C328.905 67.1473 321.024 69.1004 313.239 71.5711C309.677 72.7018 306.485 74.0397 303.204 75.7915C299.246 77.9048 295.035 79.5414 291.128 81.7406C289.246 82.7999 287.378 84.0432 285.696 85.3986C283.672 87.0295 281.056 87.5411 278.612 88.3167C276.471 88.9963 270.131 91.2825 272.272 90.6029" stroke="#151515" stroke-width="2" stroke-linecap="round"/>
<path d="M271.537 90.014C271.03 88.4157 271.949 84.8032 272.708 83.3383C272.918 82.932 273.312 82.8527 273.511 82.4135C274.183 80.9288 274.571 79.159 275.058 77.5977C275.354 76.6487 276.293 74.1082 275.444 73.1508C274.536 72.1274 273.716 71.169 272.479 70.5283C270.12 69.3054 265.45 70.5933 264.863 73.4938C264.676 74.4182 264.304 75.6716 264.542 76.6105C264.628 76.9497 264.552 77.6307 264.495 77.9961C264.396 78.6235 263.593 79.2132 263.643 79.774C263.68 80.1961 263.994 80.5911 264.006 81.014C264.016 81.374 262.327 81.6991 262.085 81.7758C260.794 82.1856 259.503 82.5953 258.212 83.0051C257.024 83.3822 256.991 83.9083 257.391 85.169C257.81 86.4882 257.706 87.8894 258.122 89.2006C258.528 90.4791 258.217 91.6424 259.523 92.3193C261.084 93.1279 262.743 93.1553 264.456 92.7944C265.664 92.5398 267.149 92.229 268.288 91.8674C269.337 91.5346 270.107 91.6678 271.027 90.9981" stroke="#151515" stroke-width="2" stroke-linecap="round"/>
<path d="M291.294 60.7198C290.241 60.2501 287.823 61.5473 286.788 61.8757C284.483 62.6072 282.583 63.541 280.531 64.8058C278.516 66.0476 278.035 69.0317 278.748 71.2798C279.438 73.4541 279.839 75.6593 281.819 77.0206C284.056 78.5595 286.428 77.6134 288.734 76.8817C291.202 76.0984 293.532 75.5595 295.421 73.7238C296.113 73.0513 296.393 72.1604 296.843 71.2931C297.437 70.1455 297.127 70.2135 295.951 69.7793C294.202 69.1335 293.657 66.9626 292.165 65.8642C291.462 65.3459 291.093 63.8507 290.557 63.1465C290.012 62.4303 289.879 61.4688 289.891 60.6169" stroke="#151515" stroke-width="2" stroke-linecap="round"/>
<path d="M308.333 65.1796C309.261 65.732 310.01 65.6834 311.094 65.6739C312.233 65.6638 313.261 66.3566 314.353 66.0101C316.598 65.2975 317.122 62.4133 317.819 60.5243C318.255 59.3433 318.525 58.193 318.881 56.9593C319.219 55.7872 320.234 54.6283 320.429 53.392C320.727 51.4962 321.084 48.4902 318.791 47.6077C317.262 47.0192 315.535 47.2892 314.85 49.0105C314.083 50.9411 312.625 52.0471 312.405 54.0198C312.276 55.1739 312.55 56.3486 312.358 57.5674C312.159 58.8308 311.185 60.1425 311.22 61.3701C311.241 62.0727 309.977 63.2041 309.493 63.654C309.12 64.0017 308.422 65.6064 308.084 65.2586" stroke="#151515" stroke-width="2" stroke-linecap="round"/>
<path d="M263.59 77.3087C257.461 79.2538 251.332 81.199 245.203 83.1441C243.633 83.6423 242.054 83.4389 240.501 83.9318C239.274 84.3212 238.047 84.7106 236.82 85.1" stroke="#151515" stroke-width="2" stroke-linecap="round"/>
<path d="M246.007 85.9299C245.636 86.0477 245.265 86.1895 244.888 86.2852C244.731 86.3251 244.284 85.8714 244.063 85.7711C243.322 85.4353 242.357 85.8563 241.64 86.0836C240.241 86.5277 236.043 87.8601 237.442 87.416" stroke="#151515" stroke-width="2" stroke-linecap="round"/>
<path d="M307.352 65.5976C304.686 66.4438 301.631 68.4773 298.783 67.9006C296.323 67.4024 292.815 67.0276 291.923 64.2172C291.02 61.3703 290.206 59.1592 290.752 56.1529C290.988 54.8546 292.428 54.1485 293.194 53.157C293.994 52.1215 295.677 51.1952 295.696 49.8645" stroke="#151515" stroke-width="2" stroke-linecap="round"/>
<path d="M335.685 33.2869C330.581 34.9068 325.729 37.0017 320.657 38.6116C318.974 39.1456 318.289 39.7231 316.879 40.7049C315.774 41.4746 313.757 42.1894 312.538 42.5762" stroke="#151515" stroke-width="2" stroke-linecap="round"/>
<path d="M312.538 42.5762C310.812 43.1239 307.76 43.5577 306.479 44.9155C305.823 45.611 304.899 46.1879 304.191 46.8908C303.533 47.5454 302.808 47.8662 302.179 48.4239C300.703 49.7335 296.385 49.894 294.964 48.4313" stroke="#151515" stroke-width="2" stroke-linecap="round"/>
<path d="M294.964 48.4313C292.405 49.2436 289.845 50.0558 287.286 50.8681C286.643 51.072 285.954 52.0023 285.39 52.426C284.165 53.3457 282.654 53.7603 281.375 54.5485C280.125 55.319 278.868 55.9327 277.624 56.7723C277.096 57.1283 275.615 59.082 275.152 58.6055" stroke="#151515" stroke-width="2" stroke-linecap="round"/>
<path d="M275.152 58.6055C272.756 59.3659 270.36 60.1263 267.964 60.8867C266.384 61.3881 264.423 61.6653 263.144 62.7558C261.749 63.9451 260.481 64.7376 259.926 66.6609C259.208 69.1534 256.617 69.5075 254.483 70.455C253.298 70.9817 252.417 72.2057 251.212 72.5881C250.906 72.6855 248.895 73.3913 249.423 72.8784" stroke="#151515" stroke-width="2" stroke-linecap="round"/>
<path d="M120.508 59.6488C121.273 59.5723 121.924 58.8215 122.675 58.6339C122.94 58.5676 123.567 58.5663 123.77 58.4084C123.964 58.2578 125.787 57.2672 124.858 57.7318C123.169 58.5759 121.355 59.1933 119.638 60.0516C118.852 60.4444 118.115 61.0426 117.246 61.2357C116.902 61.312 116.53 61.1616 116.883 60.8088C116.952 60.7401 117.16 60.5535 117.254 60.5268C117.26 60.5252 117.238 60.5188 117.238 60.5188C117.238 60.5188 119.233 59.3649 120.347 59.2058C121.005 59.1118 122.221 58.9938 122.683 58.4164C122.814 58.2522 123.475 58.3074 123.698 58.199C124.202 57.9539 124.872 57.6786 125.438 57.619C125.948 57.5652 125.141 57.6948 124.858 57.8365C124.007 58.2618 122.996 58.7589 122.256 59.3508C122.178 59.4131 121.179 60.11 121.12 60.0516C120.777 59.7081 121.472 59.1203 121.668 58.9239C122.436 58.1563 123.651 58.1368 124.64 57.917C125.703 57.6809 122.658 58.9667 121.99 59.8261C121.827 60.0353 122.88 59.805 122.9 59.8019C123.222 59.7525 123.606 59.6353 123.851 59.4314C124.625 58.7863 125.851 58.6536 126.743 58.2312C127.127 58.0491 127.729 57.9501 127.757 57.474C127.768 57.2969 128.086 56.8668 128.257 56.7813C128.539 56.64 128.86 56.5681 129.143 56.4269C129.251 56.3727 128.785 56.4903 128.708 56.5396C128.443 56.708 127.783 57.0431 127.612 57.2565C127.39 57.5346 125.426 58.0446 125.615 57.619C126.029 56.6866 127.043 56.6935 127.902 56.3866C128.661 56.1156 129.718 55.7341 130.512 55.7341C131.098 55.7341 131.12 55.5916 130.44 55.9516C129.954 56.2086 129.489 56.0545 130.005 55.6536C130.607 55.1855 131.464 55.2816 132.107 54.977C132.237 54.9156 133.181 54.3822 133.259 54.6548C133.338 54.9305 132.516 55.214 132.325 55.2992C131.676 55.5873 132.236 55.0876 132.55 55.0092C132.783 54.9509 133.792 54.6481 133.476 54.7917C133.066 54.9783 132.205 54.9454 131.817 54.7514C131.379 54.5324 131.887 54.4323 132.139 54.2842C132.154 54.2758 134.701 53.3559 134.701 53.7848C134.701 54.2153 132.932 54.4292 134.395 54.4292C135.191 54.4292 136.159 54.5435 136.698 53.9057C137.107 53.4231 137.622 53.3123 138.197 53.1243C138.568 53.0029 138.935 52.884 139.276 52.6894C139.401 52.6179 139.299 52.4424 139.389 52.5122C139.591 52.6693 140.376 52.7764 140.138 52.6813C139.867 52.5728 139.798 52.1156 139.655 51.9C139.517 51.693 139.867 52.386 140.082 52.5122C140.584 52.8079 139.955 52.4274 139.792 52.2544C139.593 52.0441 139.485 51.6694 139.502 51.3845C139.508 51.2822 139.792 50.7771 139.792 50.9495" stroke="#151515" stroke-width="2" stroke-linecap="round"/>
<path d="M140.082 51.9645C140.082 51.7473 140.127 51.6246 139.937 51.5295" stroke="#151515" stroke-width="2" stroke-linecap="round"/>
<path d="M135.052 53.6195C135.607 53.6195 136.123 53.3978 136.653 53.2389C137.145 53.0913 136.958 53.1756 136.598 53.4155C136.088 53.7553 135.586 54.0581 134.997 54.2395C134.473 54.4006 135.718 53.3964 136.174 53.0937C136.909 52.6063 137.713 52.1232 138.583 51.9989C138.716 51.98 138.906 51.93 139.023 51.8537C139.33 51.6527 139.148 51.6717 139.148 51.8537" stroke="#151515" stroke-width="2" stroke-linecap="round"/>
<path d="M137.948 51.5712C138.239 51.28 138.654 51.1762 139.007 50.9904C139.165 50.9073 139.318 50.7812 139.47 50.6843C139.562 50.6257 139.949 50.441 139.925 50.441" stroke="#151515" stroke-width="2" stroke-linecap="round"/>
<path d="M122.984 58.0501C123.322 57.7457 123.771 57.4862 124.151 57.2333" stroke="#151515" stroke-width="2" stroke-linecap="round"/>
<path d="M140.882 53.4304C141.763 52.4393 143.089 52.0879 144.021 51.1569C144.252 50.9258 144.514 50.6109 144.817 50.4764C145.001 50.3946 145.857 49.9289 145.778 49.6518C145.754 49.5679 145.59 49.3236 145.53 49.3236C145.378 49.3236 144.925 49.4161 144.773 49.4837C144.579 49.5699 144.445 49.747 144.213 49.7559C143.913 49.7675 143.672 49.622 143.388 49.6118C143.114 49.602 142.889 49.6728 142.684 49.4677C142.574 49.3585 142.434 48.9311 142.283 48.9994C141.648 49.2881 141.023 49.5795 140.382 49.86C140.192 49.9429 139.425 50.4044 139.874 50.4044" stroke="#151515" stroke-width="2" stroke-linecap="round"/>
<path d="M141.129 52.5871C141.343 52.5657 141.552 52.3476 141.746 52.2601C142.13 52.0864 142.431 51.7483 142.735 51.4614C142.937 51.2704 143.173 51.0941 143.332 50.8664C143.408 50.759 143.453 50.5305 143.568 50.4644C143.706 50.3859 143.578 50.3679 143.493 50.3679C143.292 50.3679 143.116 50.4104 142.938 50.5153C142.467 50.7944 142.003 51.0623 141.515 51.306C141.395 51.3662 141.274 51.4175 141.153 51.4802C141.074 51.5214 140.827 51.7251 140.995 51.5633C141.313 51.2578 141.591 50.9298 141.947 50.6627C142.06 50.5781 142.48 50.3633 142.48 50.1749C142.48 49.9723 141.562 50.3002 141.456 50.4054C141.37 50.4912 141.129 50.7755 141.129 50.8986" stroke="#151515" stroke-width="2" stroke-linecap="round"/>
<path d="M328.126 25.524C324.535 26.6638 321.569 27.7724 317.777 27.4256C316.748 27.3315 313.704 28.3066 313.084 29.1087C311.732 30.8575 312.236 33.4336 310.699 34.9272C309.233 36.3514 307.298 37.3744 305.676 38.6233C304.783 39.3105 304.479 40.3421 303.706 41.1294C301.496 43.3785 301.675 44.1436 302.603 47.0665" stroke="#151515" stroke-width="2" stroke-linecap="round"/>
<path d="M308.9 37.1025C307.108 37.6712 305.278 38.4411 303.4 38.5989C299.694 38.9104 296.321 40.5247 292.67 40.8703C290.627 41.0637 288.765 42.2745 286.751 42.6107C284.658 42.9601 283.1 41.3076 280.839 42.0251C277.508 43.0825 277.124 46.2549 275.49 48.7013C274.437 50.2791 278.176 54.1413 279.227 54.9834" stroke="#151515" stroke-width="2" stroke-linecap="round"/>
<path d="M291.899 40.0086C295.741 38.7893 298.784 35.899 301.717 33.2969C303.655 31.5786 304.785 28.4512 307.36 27.6338C309.706 26.8895 312.051 26.1452 314.396 25.4009C315.398 25.0828 316.852 25.0186 317.666 25.8566C318.033 26.2338 318.605 28.4654 318.484 28.0862" stroke="#151515" stroke-width="2" stroke-linecap="round"/>
<path d="M301.936 30.8488C301.083 31.1197 299.661 31.8784 298.738 31.7531C298.002 31.653 297.648 30.9534 296.951 30.8268C294.707 30.4194 291.925 31.039 289.768 31.7236C286.57 32.7386 285.413 35.4723 283.955 38.1597C282.476 40.8876 277.614 44.2033 274.303 42.606C271.195 41.1066 265.94 45.0655 264.474 47.7167C263.7 49.1164 263.618 51.293 264.1 52.8139C264.712 54.7394 262.086 55.7901 260.923 56.9201C257.413 60.3303 254.977 62.6793 250.28 64.1701C247.132 65.1692 243.01 68.2343 239.701 66.9189C237.392 66.0009 237.686 65.1798 234.945 66.0498C234.271 66.2638 232.04 66.9716 232.231 66.9111" stroke="#151515" stroke-width="2" stroke-linecap="round"/>
<path d="M242.569 68.1108C243.43 70.8246 244.291 73.5384 245.153 76.2522C246.163 79.4372 247.248 79.57 250.372 78.5787" stroke="#151515" stroke-width="2" stroke-linecap="round"/>
<path d="M263.461 55.506C263.899 56.8843 264.655 57.6985 265.062 58.9808" stroke="#151515" stroke-width="2" stroke-linecap="round"/>
<path d="M-31.7261 80.7481C-31.6746 80.3366 -22.5288 79.341 -21.5508 79.2944C-20.3096 79.2353 -18.6497 79.4657 -17.4591 79.8059C-15.8678 80.2605 -18.6775 88.9852 -16.4631 88.9852C-11.7105 88.9852 -8.91651 88.2253 -4.96876 85.5934C-4.03414 84.9704 -3.09091 83.8889 -1.95385 83.6822C-1.3431 83.5712 0.0277111 83.3427 0.468845 82.9016C1.73008 81.6403 2.4745 78.4196 0.738035 77.8408" stroke="#151515" stroke-width="2" stroke-linecap="round"/>
<path d="M-0.230994 77.3563C2.31021 77.3563 4.99677 77.61 7.52163 77.3294C8.62399 77.2069 12.4444 76.7779 12.9592 75.9027C13.8422 74.4016 15.2774 72.6322 16.9432 72.0264C18.46 71.4748 19.7968 71.8559 21.331 71.515C24.8942 70.7231 25.9341 65.45 25.9341 62.6048C25.9341 59.8184 17.143 62.8666 15.7588 64.866C13.2485 68.492 11.4382 70.178 7.52163 71.9187C4.94617 73.0634 -1.20007 70.9926 -1.20007 75.6605C-1.20007 78.9863 -6.76846 76.7351 -9.19497 78.0831C-12.0324 79.6595 -14.8771 80.2636 -18.1589 80.2636" stroke="#151515" stroke-width="2" stroke-linecap="round"/>
<path d="M-0.739993 89.6041C-0.739993 92.9305 -6.02997 94.5753 -7.90196 96.9153C-8.16765 97.2474 -9.54354 97.523 -9.99086 97.8105C-10.7565 98.3027 -11.4799 98.7706 -12.1461 99.3855C-12.616 99.8193 -13.3967 100.489 -14.0029 100.662C-14.4754 100.797 -14.7655 101.91 -14.7655 100.944" stroke="#151515" stroke-width="2" stroke-linecap="round"/>
<path d="M-6.40967 101.839C-6.40967 99.3093 -3.29877 97.8877 -1.78423 96.0366C-0.184343 94.0811 1.51874 93.6971 3.73645 92.5882C5.5039 91.7045 7.82079 89.9025 9.85396 89.9025C11.3226 89.9025 12.6303 90.4993 14.0152 90.4993C15.0998 90.4993 16.296 90.7977 17.4635 90.7977C18.621 90.7977 20.1843 90 18.7235 91.4609C18.0417 92.1427 17.5783 93.4591 17.447 94.3787C17.223 95.9463 15.0563 96.8019 14.3302 98.1089C13.7998 99.0636 8.99943 103.345 7.91426 101.988C7.54125 101.522 5.06905 101.636 4.33328 101.309C3.66442 101.011 2.87215 100.952 2.17806 100.712C1.70398 100.548 0.797768 99.7704 0.453879 99.7502C-1.17815 99.6542 0.00925757 105.718 -2.67948 105.718C-3.37279 105.718 -4.8038 105.435 -4.91759 104.525C-5.04964 103.468 -5.97336 103.01 -6.40967 102.137" stroke="#151515" stroke-width="2" stroke-linecap="round"/>
<path d="M9.40623 102.734C11.6669 102.734 13.7381 102.755 15.905 103.398C17.8643 103.978 21.1189 104.489 22.2381 106.448C23.118 107.988 22.8226 109.464 21.7076 110.858C21.1009 111.616 18.8198 112.88 17.6126 112.88C15.9449 112.88 14.4514 112.626 12.838 112.267C11.5652 111.984 8.83032 110.762 7.91415 109.896C6.5483 108.606 4.23699 108.378 2.5261 107.807C1.11253 107.336 -0.342132 106.962 -1.63513 106.315" stroke="#151515" stroke-width="2" stroke-linecap="round"/>
<path d="M38.4421 131.169C38.4421 127.898 36.6577 117.193 40.7649 115.7C44.8521 114.214 47.9715 113.609 52.2392 113.609C54.4518 113.609 54.9111 112.322 56.0949 110.683C56.6265 109.947 57.0219 108.761 57.8834 108.569C58.7543 108.376 59.839 107.594 60.3687 106.92C63.3443 103.133 66.3441 99.5045 69.799 96.0496" stroke="#151515" stroke-width="2" stroke-linecap="round"/>
<path d="M49.694 60.2618C49.694 61.0306 49.694 61.7994 49.694 62.5682C49.694 63.1491 49.3198 65.3167 49.7349 65.7317C50.0039 66.0007 50.3718 65.3144 50.7043 65.1297C51.1991 64.8548 52.4689 64.6891 53.0821 64.8643C53.9914 65.1241 54.2863 67.6078 54.2863 68.3442C54.2863 69.1186 54.4251 71.5493 55.1129 72.0079C56.1435 72.6949 57.2692 72.347 58.2357 73.1202C59.283 73.958 59.4297 76.6728 59.4297 77.8962C59.4297 78.3156 59.5788 78.988 59.2358 79.2739C58.5736 79.8257 57.9976 80.1005 57.1437 80.1005C56.298 80.1005 55.4946 80.2842 54.6537 80.2842C54.2224 80.2842 53.6989 80.2004 53.276 80.2944C53.0985 80.3338 52.8168 80.652 52.8168 80.4678" stroke="#151515" stroke-width="2" stroke-linecap="round"/>
<path d="M52.2658 80.6516C52.2658 81.6925 52.2658 82.7334 52.2658 83.7744C52.2658 85.069 51.9222 84.9973 50.98 85.4684C50.1524 85.8822 49.1479 86.111 48.2246 86.1623C47.1129 86.2241 47.138 87.4242 46.949 88.2748C46.8814 88.579 47.1314 90.2928 46.8367 90.377C46.3889 90.505 46.0094 90.3717 45.5611 90.5709C45.2379 90.7145 44.8151 90.9383 44.4589 90.9383C42.9756 90.9383 41.4933 91.6731 39.9585 91.6731" stroke="#151515" stroke-width="2" stroke-linecap="round"/>
<path d="M38.8563 92.0404C38.8563 94.146 38.8563 96.2517 38.8563 98.3573C38.8563 98.5867 38.44 98.1473 38.2134 98.1124C37.8003 98.0489 37.3452 98.1022 36.9275 98.1022C36.3424 98.1022 35.2362 98.2765 34.7232 98.5614C34.3928 98.745 33.5377 98.7994 33.1619 98.837C32.5642 98.8967 31.7619 99.0879 31.2433 99.3472C30.8006 99.5686 30.0391 99.5103 30.0391 100.123C30.0391 100.511 30.1814 101.247 29.9983 101.592C29.7267 102.105 28.8336 102.192 28.5696 102.786C28.346 103.29 27.6263 103.908 27.1919 104.246C26.8165 104.538 26.292 104.223 25.9061 104.531C25.4166 104.923 25.3587 106.677 25.1713 107.277C24.9824 107.881 24.9692 108.172 24.3447 108.205C23.9701 108.225 23.607 108.448 23.2426 108.532C22.8362 108.625 22.3953 108.491 21.9975 108.613C20.6647 109.024 19.322 109.21 17.9155 109.491" stroke="#151515" stroke-width="2" stroke-linecap="round"/>
<path d="M17.9156 109.491C17.9156 111.399 17.9907 112.954 16.4461 114.226C15.3841 115.101 14.3534 115.461 13.1294 116.012C12.348 116.364 11.0609 116.839 10.2006 116.839" stroke="#151515" stroke-width="2" stroke-linecap="round"/>
<path d="M53.2625 65.717C55.757 65.717 58.0457 65.833 60.2989 64.6471C60.808 64.3792 61.4894 64.4 61.6053 63.7624C61.7751 62.8285 62.1506 61.8568 62.1506 60.9026" stroke="#151515" stroke-width="2" stroke-linecap="round"/>
<path d="M61.4098 64.9763C61.6383 65.8904 66.3854 65.7058 66.9649 65.7169C68.2012 65.7407 69.8639 66.251 71.1209 65.8918C71.7769 65.7044 73.148 65.7714 73.5383 65.0688C74.0029 64.2327 73.8161 63.1372 73.8161 62.1987" stroke="#151515" stroke-width="2" stroke-linecap="round"/>
<path d="M73.4458 66.4576C75.4417 66.4576 77.8669 66.1826 79.7415 66.972C80.5889 67.3287 81.6823 67.0596 82.5191 67.0131C85.1403 66.8675 84.3708 63.8577 84.3708 62.1987" stroke="#151515" stroke-width="2" stroke-linecap="round"/>
<path d="M84.3707 66.4578C85.636 66.4578 86.9014 66.4578 88.1667 66.4578C88.5987 66.4578 89.0308 66.4578 89.4629 66.4578C89.8636 66.4578 90.1822 66.8281 90.6665 66.8281" stroke="#151515" stroke-width="2" stroke-linecap="round"/>
<path d="M60.8544 65.717C60.8544 67.3261 60.5512 68.6804 60.3092 70.2537C60.2102 70.8968 60.1137 71.4164 60.1137 72.1054C60.1137 72.6641 59.9767 73.309 59.373 73.309" stroke="#151515" stroke-width="2" stroke-linecap="round"/>
<path d="M60.1138 73.1238C61.7497 73.1238 64.2198 73.6238 65.7614 72.9386C66.1408 72.77 66.8278 72.5683 67.2428 72.5683C67.6295 72.5683 68.8364 72.5896 69.1459 72.342C69.6875 71.9087 70.1129 71.0004 70.1129 70.336C70.1129 69.8466 70.3698 67.6046 69.9277 67.3835" stroke="#151515" stroke-width="2" stroke-linecap="round"/>
<path d="M69.9276 71.6424C71.3026 71.6424 72.4725 72.021 73.8059 72.1877C75.1857 72.3601 76.6786 72.1979 78.0648 72.1979C78.5818 72.1979 79.1152 71.3188 79.1861 70.7166C79.2335 70.3133 79.4634 69.7931 79.5461 69.3381C79.656 68.7338 79.388 68.0991 79.7416 67.5687" stroke="#151515" stroke-width="2" stroke-linecap="round"/>
<path d="M79.7416 72.1979C81.5618 72.1979 83.6395 72.4994 85.3789 72.0024C86.4254 71.7034 88.2735 70.726 89.3704 71.4572" stroke="#151515" stroke-width="2" stroke-linecap="round"/>
<path d="M83.2598 73.6793V78.1234" stroke="#151515" stroke-width="2" stroke-linecap="round"/>
<path d="M66.3834 74.0261C66.3834 75.0533 66.3834 76.0805 66.3834 77.1077C66.3834 77.7457 66.6427 79.091 66.2657 79.7078C65.6537 80.7093 64.675 80.7671 63.6442 80.7671C62.1716 80.7671 60.8953 80.1893 59.4498 80.1893" stroke="#151515" stroke-width="2" stroke-linecap="round"/>
<path d="M66.9611 80.093C67.9562 80.093 68.9513 80.093 69.9464 80.093C70.7217 80.093 71.4932 80.1803 72.2148 79.8523C73.014 79.489 73.9724 79.5343 74.8523 79.4243C76.1493 79.2622 76.1057 78.0425 76.5697 77.0114C76.711 76.6973 76.5911 76.0951 76.5911 75.7595C76.5911 75.3725 76.5911 74.9856 76.5911 74.5986C76.5911 74.2604 76.7604 73.3404 76.3985 73.1594" stroke="#151515" stroke-width="2" stroke-linecap="round"/>
<path d="M76.7837 78.6485C78.0499 78.6485 79.316 78.6485 80.5822 78.6485C81.1456 78.6485 81.9704 78.4973 82.4654 78.7448" stroke="#151515" stroke-width="2" stroke-linecap="round"/>
<path d="M76.0133 79.5151V82.4041" stroke="#151515" stroke-width="2" stroke-linecap="round"/>
<path d="M66.3834 80.6708C66.3834 81.1355 66.2633 81.7509 66.5225 82.1581C66.6376 82.339 66.7244 82.6297 66.7632 82.8429C66.8405 83.268 66.7974 84.2339 67.3464 84.2339C68.5699 84.2339 69.7 83.945 70.9095 83.945" stroke="#151515" stroke-width="2" stroke-linecap="round"/>
<path d="M66.6723 84.2339C65.8512 84.2339 65.091 84.6191 64.2648 84.6191C63.8059 84.6191 63.3851 84.7981 62.9166 84.694C62.2795 84.5524 61.5252 84.4265 60.8729 84.4265C60.7245 84.4265 59.9487 84.374 60.3646 84.0413C60.4957 83.9364 60.4128 83.4131 60.4128 83.2495C60.4128 82.4541 60.4128 81.6588 60.4128 80.8634" stroke="#151515" stroke-width="2" stroke-linecap="round"/>
<path d="M59.9311 84.619C58.2574 84.619 56.6232 85.0664 54.9449 85.0042C54.5293 84.9888 54.1429 84.8116 53.7198 84.8116C53.4673 84.8116 53.0163 84.7528 52.9012 84.5227" stroke="#151515" stroke-width="2" stroke-linecap="round"/>
<path d="M47.1714 90.9542C49.0655 90.9542 51.0116 91.088 52.9012 90.948C53.6616 90.8917 54.4228 90.7316 55.182 90.7316C55.5648 90.7316 55.7469 90.5272 56.0721 90.5091C56.7316 90.4725 56.6284 88.7119 56.6284 88.2221C56.6284 87.6518 56.6486 86.433 56.4059 85.9475" stroke="#151515" stroke-width="2" stroke-linecap="round"/>
<path d="M56.6284 90.5091C58.312 90.5091 59.9826 90.5867 61.6351 90.3113C62.4098 90.1822 63.2525 90.2064 63.9962 89.9775C64.3208 89.8776 64.425 89.9379 64.5525 89.619C64.7938 89.0158 64.771 88.3536 64.8863 87.7276C65.0389 86.899 64.3053 86.0943 64.3053 85.2799" stroke="#151515" stroke-width="2" stroke-linecap="round"/>
<path d="M64.9729 90.1753C65.6961 90.1753 66.4193 90.1753 67.1425 90.1753C67.6147 90.1753 67.9706 90.3978 68.4219 90.3978" stroke="#151515" stroke-width="2" stroke-linecap="round"/>
<path d="M46.7263 92.4004C46.7263 93.8222 46.6714 96.3067 44.8349 96.5108C43.9752 96.6063 43.1239 96.4057 42.2759 96.4057C41.5713 96.4057 40.8666 96.4057 40.162 96.4057" stroke="#151515" stroke-width="2" stroke-linecap="round"/>
<path d="M46.2814 96.5171C48.1049 96.5171 49.8934 96.2946 51.7083 96.2946C52.5408 96.2946 53.0575 96.018 53.8223 95.763C54.2423 95.623 54.292 95.7994 54.292 95.2685C54.292 94.8318 54.292 94.395 54.292 93.9582C54.292 92.9939 54.292 92.0297 54.292 91.0654" stroke="#151515" stroke-width="2" stroke-linecap="round"/>
<path d="M54.6257 96.0721C55.7095 96.0721 56.7932 96.0721 57.877 96.0721C58.297 96.0721 58.5192 95.9155 58.9154 95.8434C59.6923 95.7022 60.4837 95.6913 61.2456 95.522C61.633 95.4359 61.8694 95.5023 61.975 95.1326C62.0854 94.7463 62.3026 94.5252 62.3026 94.0695C62.3026 93.0256 62.1913 92.0098 62.1913 90.9542" stroke="#151515" stroke-width="2" stroke-linecap="round"/>
<path d="M62.7477 95.7383C64.5052 95.7383 66.2234 95.8495 67.9769 95.8495" stroke="#151515" stroke-width="2" stroke-linecap="round"/>
<path d="M58.7423 97.1846C58.7423 98.3265 58.6609 99.5006 58.7485 100.64C58.7725 100.951 58.902 102.287 59.1874 102.438C59.6856 102.702 60.6238 102.525 61.19 102.525C61.6861 102.525 62.1349 102.414 62.6364 102.414" stroke="#151515" stroke-width="2" stroke-linecap="round"/>
<path d="M58.0748 102.748C56.3346 102.748 54.5792 102.636 52.8518 102.636C52.3444 102.636 51.8765 102.573 51.3993 102.414" stroke="#151515" stroke-width="2" stroke-linecap="round"/>
<path d="M51.3993 102.414C51.3993 100.624 51.2881 98.8638 51.2881 97.0734" stroke="#151515" stroke-width="2" stroke-linecap="round"/>
<path d="M50.6204 102.525C48.5228 102.525 45.5842 103.08 43.8089 101.66C43.4891 101.404 43.2773 101.855 43.2773 101.246C43.2773 100.801 43.2773 100.355 43.2773 99.9105C43.2773 99.1131 43.2773 96.721 43.2773 97.5184" stroke="#151515" stroke-width="2" stroke-linecap="round"/>
<path d="M42.7211 102.08C41.5426 102.08 40.3641 102.08 39.1855 102.08C38.7143 102.08 38.3187 101.635 37.8813 101.635C37.7487 101.635 36.9437 101.575 36.8491 101.499C36.5642 101.271 35.3056 101.322 34.933 101.301C34.5089 101.278 34.7186 99.5169 34.933 99.4097" stroke="#151515" stroke-width="2" stroke-linecap="round"/>
<path d="M53.9025 103.535C53.9025 104.632 53.8746 105.709 54.0182 106.786C54.0911 107.333 54.0483 107.379 54.5179 107.56C54.8971 107.705 55.3384 107.891 55.7489 107.891C56.9927 107.891 58.2769 107.796 59.4892 107.796" stroke="#151515" stroke-width="2" stroke-linecap="round"/>
<path d="M53.9024 108.08C51.5265 108.08 49.1444 108.133 46.7691 108.08C46.5211 108.075 46.4575 107.756 46.2535 107.607C45.9122 107.358 45.6275 106.981 45.496 106.586C45.2978 105.992 45.1626 105.168 45.3592 104.556C45.459 104.246 45.7475 103.719 45.759 103.42C45.7646 103.274 45.759 102.75 45.759 102.778" stroke="#151515" stroke-width="2" stroke-linecap="round"/>
<path d="M45.8537 108.364C44.3071 108.364 42.7604 108.364 41.2138 108.364C40.5567 108.364 39.9375 108.221 39.299 108.175C38.7723 108.137 37.4986 107.846 37.2368 107.323" stroke="#151515" stroke-width="2" stroke-linecap="round"/>
<path d="M36.8582 102.399C36.8582 103.487 36.7434 104.633 36.8635 105.713C36.8869 105.925 36.9703 106.858 37.1423 106.944" stroke="#151515" stroke-width="2" stroke-linecap="round"/>
<path d="M37.1422 107.891C36.4478 107.891 35.7534 107.891 35.059 107.891C34.2575 107.891 33.3632 107.631 32.5603 107.512C31.6267 107.374 30.7378 107.039 29.7984 107.039C29.083 107.039 28.5024 107.512 27.7679 107.512C27.5662 107.512 27.0453 107.532 26.9156 107.37C26.7083 107.111 26.4986 107.203 26.2528 107.039" stroke="#151515" stroke-width="2" stroke-linecap="round"/>
<path d="M48.884 108.554C48.884 109.748 48.715 111.132 48.9734 112.294C49.0214 112.51 49.049 112.81 49.0733 113.004C49.0836 113.087 49.2627 113.486 49.2627 113.383" stroke="#151515" stroke-width="2" stroke-linecap="round"/>
<path d="M46.2325 114.141C44.23 114.141 42.2275 114.141 40.2249 114.141C39.981 114.141 39.1728 114.267 38.9939 114.088C38.7531 113.847 38.752 113.365 38.752 113.052C38.752 112.632 38.9528 112.273 39.0571 111.868C39.1036 111.687 39.2254 111.574 39.2254 111.395C39.2254 111.164 39.1307 110.959 39.1307 110.732C39.1307 110.135 38.752 109.554 38.752 108.933" stroke="#151515" stroke-width="2" stroke-linecap="round"/>
<path d="M38.5627 114.141C37.6175 114.141 36.6724 114.141 35.7272 114.141C34.9359 114.141 34.1129 114.442 33.4073 113.993C33.1186 113.81 33.1276 113.762 32.7392 113.762C32.4212 113.762 32.1744 113.573 31.887 113.573C31.5079 113.573 30.7572 113.435 30.4666 113.667C30.2008 113.88 29.503 114.03 29.4724 113.478C29.4269 112.66 29.9828 111.989 30.2088 111.226C30.3683 110.688 30.0699 109.964 30.0405 109.406C30.0273 109.155 29.8511 109.002 29.8511 108.743C29.8511 108.459 29.8511 108.175 29.8511 107.891" stroke="#151515" stroke-width="2" stroke-linecap="round"/>
<path d="M29.2829 113.762C28.2732 113.762 26.7703 114.012 25.8004 113.667C25.2798 113.482 24.6698 113.513 24.1907 113.194C23.8903 112.993 23.709 112.831 23.4121 112.699C23.1008 112.561 22.0542 112.501 21.7077 112.647C21.1544 112.88 20.3074 112.72 19.7192 112.72C19.4456 112.72 18.3325 112.558 18.2041 112.815" stroke="#151515" stroke-width="2" stroke-linecap="round"/>
<path d="M33.2844 114.736C33.2844 115.597 32.9775 117.177 33.5127 117.846C33.9844 118.436 32.9661 119.608 34.1832 119.744C34.8706 119.82 35.2898 119.358 36.1094 119.358C36.3378 119.358 37.5922 119.627 37.6503 119.744" stroke="#151515" stroke-width="2" stroke-linecap="round"/>
<path d="M33.156 119.872C31.6889 119.872 30.121 119.698 28.6688 119.879C28.1426 119.945 27.3861 120.19 26.8639 119.929C26.5126 119.753 25.5436 119.442 25.323 119.166C25.1518 118.952 24.1241 119.102 23.8463 119.102C23.558 119.102 23.3964 119.216 23.14 119.33C22.7796 119.49 23.0116 119.136 23.0116 118.973C23.0116 118.381 23.3646 118.012 23.3968 117.432C23.4698 116.119 23.2684 114.875 23.2684 113.58" stroke="#151515" stroke-width="2" stroke-linecap="round"/>
<path d="M22.3696 119.23C21.5814 119.23 20.7724 119.174 19.9869 119.237C19.1029 119.308 18.2048 119.643 17.3045 119.48C16.9742 119.419 16.5351 119.019 16.2059 118.873C15.8046 118.695 15.2753 118.935 14.9218 119.101C14.3963 119.349 13.7617 119.358 13.1883 119.358C12.779 119.358 12.5672 119.101 12.161 119.101C11.8903 119.101 10.0363 118.833 10.1706 119.101" stroke="#151515" stroke-width="2" stroke-linecap="round"/>
<path d="M17.2332 119.358C17.2332 120.271 17.7469 121.146 17.7469 122.055C17.7469 122.423 17.8706 123.287 17.5899 123.567C17.3181 123.839 16.7825 123.936 16.4628 124.238C16.1741 124.51 15.4778 124.366 15.1073 124.366C13.8898 124.366 12.6723 124.366 11.4548 124.366C10.8817 124.366 8.92136 124.693 8.62976 124.109" stroke="#151515" stroke-width="2" stroke-linecap="round"/>
<path d="M16.7195 124.623C18.7971 124.623 20.8771 124.652 22.9545 124.623C24.086 124.607 25.3007 124.288 26.4144 124.117C26.8477 124.05 28.0416 124.354 28.3334 123.895C28.5711 123.522 28.6441 122.855 28.79 122.433C29.0117 121.793 29.3125 121.179 29.5319 120.543C29.6462 120.211 29.2612 120.236 29.0468 120.129" stroke="#151515" stroke-width="2" stroke-linecap="round"/>
<path d="M276.419 96.6731C277.908 97.7045 280.439 98.7771 280.951 100.492C281.061 100.86 283.312 105.425 283.405 105.489C288.158 108.782 296.207 101.045 299.48 105.666C300.756 107.467 300.935 109.91 302.123 111.861C302.806 112.984 305.214 116.779 305.297 117.989C305.504 120.981 297.892 127.418 299.6 124.953" stroke="#151515" stroke-width="2" stroke-linecap="round"/>
<path d="M302.654 111.068C304.517 108.379 309.146 98.5634 313.373 99.6747C317.579 100.781 320.487 102.06 323.995 104.491C325.814 105.751 326.925 104.954 328.831 104.281C329.687 103.978 330.688 103.228 331.505 103.562C332.331 103.898 333.668 103.874 334.487 103.621C339.09 102.203 343.622 100.928 348.429 100.056" stroke="#151515" stroke-width="2" stroke-linecap="round"/>
<path d="M325.277 79.1393C324.078 80.8701 322.879 82.601 321.68 84.3319C321.549 84.5204 321.457 83.9221 321.291 83.7644C320.988 83.4769 320.583 83.2616 320.24 83.0238C319.759 82.6906 318.75 82.2038 318.166 82.146C317.79 82.1087 317.056 81.6664 316.726 81.4833C316.2 81.1921 315.432 80.8924 314.858 80.8102C314.368 80.74 313.775 80.2585 313.427 80.762C313.206 81.0811 312.904 81.7667 312.556 81.9467C312.041 82.2138 311.257 81.7766 310.702 82.1146C310.232 82.4008 309.288 82.4992 308.738 82.5296C308.263 82.5558 308.012 81.9982 307.519 82.0322C306.893 82.0754 305.847 83.4843 305.351 83.8704C304.852 84.2597 304.675 84.4916 304.143 84.163C303.824 83.9659 303.398 83.9429 303.051 83.8038C302.664 83.6487 302.378 83.2878 301.981 83.1619C300.652 82.74 299.442 82.1285 298.126 81.5587" stroke="#151515" stroke-width="2" stroke-linecap="round"/>
<path d="M298.126 81.5588C297.04 83.1268 296.216 84.4482 294.222 84.6143C292.851 84.7284 291.798 84.4378 290.478 84.1935C289.636 84.0376 288.307 83.6951 287.6 83.2051" stroke="#151515" stroke-width="2" stroke-linecap="round"/>
<path d="M322.737 89.5928C321.768 88.9217 320.799 88.2505 319.831 87.5794C319.443 87.311 319.371 86.72 319.012 86.4709C318.903 86.3953 318.275 85.8874 318.241 85.7713C318.136 85.4217 317.073 84.7467 316.778 84.5175C316.443 84.2566 317.618 82.9288 317.855 82.9627" stroke="#151515" stroke-width="2" stroke-linecap="round"/>
<path d="M328.511 100.893C326.558 99.5398 324.57 98.2267 322.647 96.8306C322.447 96.6849 322.576 96.3865 322.493 96.1478C322.355 95.7484 322.335 95.2767 322.452 94.8775C322.627 94.2758 322.986 93.5213 323.495 93.1305C323.754 92.9322 324.291 92.6639 324.471 92.4241C324.559 92.3076 324.852 91.8738 324.837 91.8965" stroke="#151515" stroke-width="2" stroke-linecap="round"/>
<path d="M321.733 96.5428C320.462 95.662 319.19 94.7813 317.919 93.9005C317.379 93.5263 316.952 93.0555 316.453 92.6544C316.041 92.3235 315.16 91.359 315.243 90.7795" stroke="#151515" stroke-width="2" stroke-linecap="round"/>
<path d="M317.736 86.5163C317.116 87.4102 316.369 88.2872 315.853 89.2436C315.752 89.4307 315.289 90.2457 315.381 90.4143" stroke="#151515" stroke-width="2" stroke-linecap="round"/>
<path d="M314.842 91.1926C314.271 90.7972 313.7 90.4018 313.129 90.0063C312.47 89.5498 311.883 88.827 311.291 88.272C310.602 87.6266 310.062 86.845 309.29 86.31C308.702 85.9026 307.955 85.9611 307.352 85.5429C307.186 85.428 306.746 85.1478 306.732 84.9408C306.709 84.6097 306.484 84.5656 306.376 84.2909" stroke="#151515" stroke-width="2" stroke-linecap="round"/>
<path d="M324.116 98.424C323.436 99.4054 322.509 100.447 322.06 101.549C321.976 101.754 321.828 102.016 321.737 102.19C321.699 102.264 321.619 102.694 321.677 102.609" stroke="#151515" stroke-width="2" stroke-linecap="round"/>
<path d="M318.755 101.507C317.109 100.366 315.463 99.2258 313.817 98.0854C313.616 97.9465 312.88 97.5901 312.835 97.3412C312.774 97.006 313.047 96.6091 313.226 96.3515C313.465 96.0064 313.834 95.8261 314.151 95.5523C314.292 95.4301 314.457 95.4063 314.559 95.259C314.69 95.0691 314.729 94.8472 314.858 94.6602C315.198 94.1696 315.218 93.4762 315.572 92.9656" stroke="#151515" stroke-width="2" stroke-linecap="round"/>
<path d="M312.45 97.1386C311.673 96.6004 310.896 96.0622 310.12 95.5239C309.469 95.0733 308.621 94.8527 308.296 94.0817C308.164 93.7663 308.198 93.7322 307.879 93.511C307.618 93.3299 307.523 93.0337 307.286 92.87C306.975 92.6541 306.436 92.1134 306.065 92.139C305.725 92.1624 305.066 91.8885 305.355 91.4171C305.784 90.7186 306.623 90.4841 307.243 89.9857C307.681 89.6342 307.847 88.8693 308.141 88.3937C308.273 88.18 308.216 87.9539 308.363 87.741C308.525 87.5075 308.687 87.2739 308.848 87.0404" stroke="#151515" stroke-width="2" stroke-linecap="round"/>
<path d="M305.038 91.5428C304.208 90.9679 302.83 90.3176 302.229 89.4818C301.907 89.0332 301.387 88.7113 301.176 88.1759C301.043 87.8403 300.986 87.6036 300.817 87.3261C300.64 87.0351 299.814 86.3896 299.446 86.3122C298.859 86.1886 298.253 85.5754 297.77 85.2404C297.545 85.0846 296.722 84.3174 296.47 84.4554" stroke="#151515" stroke-width="2" stroke-linecap="round"/>
<path d="M307.773 94.622C307.282 95.33 306.13 96.4541 306.189 97.3088C306.241 98.0622 304.736 98.4463 305.66 99.2505C306.181 99.7047 306.789 99.564 307.462 100.031C307.65 100.161 308.528 101.096 308.51 101.225" stroke="#151515" stroke-width="2" stroke-linecap="round"/>
<path d="M304.742 98.771C303.536 97.9355 302.347 96.8993 301.049 96.2215C300.579 95.9759 299.818 95.7467 299.537 95.2347C299.349 94.8903 298.73 94.0821 298.705 93.7298C298.687 93.4563 297.757 92.9943 297.528 92.836C297.291 92.6719 297.093 92.6739 296.818 92.6215C296.43 92.5479 296.823 92.3888 296.915 92.2552C297.252 91.7687 297.753 91.6661 298.109 91.2079C298.917 90.1696 299.46 89.0326 300.198 87.9681" stroke="#151515" stroke-width="2" stroke-linecap="round"/>
<path d="M296.241 92.1006C295.593 91.6517 294.96 91.1452 294.278 90.7495C293.512 90.3043 292.582 90.0687 291.935 89.4214C291.698 89.1839 291.565 88.605 291.378 88.2973C291.149 87.9221 290.577 87.8183 290.192 87.7537C289.619 87.6577 289.092 87.3042 288.621 86.9776C288.285 86.7446 288.257 86.4128 287.923 86.1815C287.7 86.0274 286.329 84.7507 286.287 85.0481" stroke="#151515" stroke-width="2" stroke-linecap="round"/>
<path d="M291.946 89.2813C291.426 90.0318 291.35 91.0435 290.832 91.7904C290.623 92.0933 290.233 92.8733 289.842 92.9442C289.464 93.0129 288.968 92.7874 288.534 92.8536C288.141 92.9133 287.651 92.3982 287.346 92.1872C286.346 91.4939 285.345 90.8006 284.344 90.1072C283.873 89.7809 282.076 88.9328 282.168 88.2873" stroke="#151515" stroke-width="2" stroke-linecap="round"/>
<path d="M288.526 93.3164C290.233 94.4995 291.927 95.708 293.651 96.867C294.59 97.4983 295.77 97.9276 296.783 98.421C297.177 98.6129 297.986 99.5428 298.487 99.332C298.895 99.1604 299.335 98.6533 299.695 98.3899C300.242 97.9897 300.838 97.6566 301.381 97.2584C301.664 97.0511 301.333 96.8522 301.218 96.642" stroke="#151515" stroke-width="2" stroke-linecap="round"/>
<path d="M298.131 99.971C299.404 100.853 300.621 101.726 302.014 102.358C302.53 102.592 302.996 102.873 303.47 103.201C303.874 103.481 304.011 103.889 304.432 104.18C304.893 104.5 305.097 104.676 305.341 105.122" stroke="#151515" stroke-width="2" stroke-linecap="round"/>
<path d="M298.107 99.3292C297.47 100.249 296.636 101.001 295.995 101.927C295.811 102.193 295.42 102.575 295.36 102.894C295.33 103.05 295.165 103.757 295.466 103.592" stroke="#151515" stroke-width="2" stroke-linecap="round"/>
<path d="M294.816 104.079C293.626 103.255 292.37 102.483 291.227 101.593C290.841 101.292 289.881 100.7 289.601 100.232C289.102 99.396 290.396 98.214 291.052 97.8874C291.702 97.5637 292.092 97.0704 292.106 96.2657" stroke="#151515" stroke-width="2" stroke-linecap="round"/>
<path d="M289.011 100.057C288.201 99.4967 287.392 98.9361 286.583 98.3754C286.134 98.0642 285.13 97.6272 284.878 97.1161C284.692 96.7394 284.103 96.5751 283.822 96.272C283.661 96.0976 283.057 95.2426 282.755 95.3328C282.24 95.4865 281.306 94.5632 280.874 94.2642C280.377 93.9198 278.78 93.7197 278.877 93.0373" stroke="#151515" stroke-width="2" stroke-linecap="round"/>
<path d="M286.015 98.2939C285.626 98.8549 285.237 99.4159 284.849 99.977C284.565 100.387 284.463 100.992 284.244 101.476C284.05 101.903 283.711 102.296 283.443 102.683C283.243 102.97 283.31 103.606 282.967 103.369" stroke="#151515" stroke-width="2" stroke-linecap="round"/>
<path d="M-5.96875 104.065C-8.03427 104.065 -9.82475 103.946 -11.8343 103.509C-13.6053 103.124 -13.8321 103.202 -15.3398 103.995C-17.5201 105.143 -19.3917 106.944 -21.8995 107.501C-22.3161 107.593 -25.5951 108.157 -25.6305 108.316C-25.902 109.538 -25.9603 110.781 -25.9603 112.03C-25.9603 113.012 -26.1563 114.194 -25.9429 115.154C-25.6628 116.414 -24.4637 115.508 -23.8431 116.004C-22.75 116.879 -20.0731 116.904 -19.3311 115.622C-18.4523 114.104 -15.3354 111.874 -13.6218 111.874C-12.0821 111.874 -10.4701 113.229 -9.71716 114.546C-8.95752 115.876 4.25438 117.738 5.57239 117.738" stroke="#151515" stroke-width="2" stroke-linecap="round"/>
<path d="M281.253 25.0378C279.284 25.6626 277.542 26.0914 275.494 26.2829C273.69 26.4516 273.497 26.594 272.3 27.8064C270.569 29.5597 269.33 31.8422 267.108 33.132C266.739 33.3462 263.784 34.8752 263.798 35.038C263.909 36.2847 264.23 37.4873 264.608 38.6775C264.905 39.6135 265.075 40.7988 265.569 41.6495C266.217 42.7662 267.086 41.5393 267.828 41.8248C269.134 42.3277 271.693 41.5421 272.013 40.0961C272.391 38.3834 274.687 35.3146 276.321 34.7962C277.788 34.3305 279.735 35.1342 280.851 36.1623C281.977 37.1996 283.791 36.3581 285.047 35.9594" stroke="#151515" stroke-width="2" stroke-linecap="round"/>
<path d="M257.048 32.8336C253.51 33.9564 252.249 38.0684 249.68 40.3474C248.675 41.2386 247.773 42.341 246.843 43.3266C245.703 44.5349 243.795 45.8853 242.92 47.27C241.261 49.8952 238.838 52.0226 236.521 54.0779C234.773 55.6286 233.825 58.1182 231.472 58.8652" stroke="#151515" stroke-width="2" stroke-linecap="round"/>
<path d="M254.046 41.1682C252.864 43.1551 252.085 44.1312 252.172 46.5311C252.212 47.6254 252.906 50.6261 254.038 51.0442C255.161 51.4589 256.448 51.1753 257.564 50.8882C258.959 50.5295 260.385 50.6293 261.118 49.1102C261.742 47.8159 261.865 46.0245 261.629 44.6132C261.479 43.7142 261.084 41.9953 260.303 41.4581C259.613 40.9835 258.192 40.5026 257.384 40.759C257.11 40.8461 256.197 41.2954 255.971 41.0871C255.478 40.6333 254.898 40.7456 254.502 41.2401" stroke="#151515" stroke-width="2" stroke-linecap="round"/>
<path d="M244.402 54.1152C244.077 54.2181 243.428 54.2914 243.174 54.5385C242.696 55.0032 242.666 56.3411 242.581 56.9627C242.413 58.2026 242.659 60.0969 243.572 61.0368C244.913 62.4175 248.419 61.3207 249.202 59.704C249.564 58.9553 249.818 57.8303 249.56 57.0179C249.31 56.2324 249.404 54.4261 248.359 54.1876C247.938 54.0916 247.625 53.7041 247.238 53.5176C246.958 53.3822 246.605 53.4635 246.303 53.3267C245.907 53.1473 244.734 53.4447 244.452 53.7967" stroke="#151515" stroke-width="2" stroke-linecap="round"/>
<path d="M7.31836 88.7548C7.31836 87.4225 6.9686 85.3273 7.93697 84.2513C8.93473 83.1427 10.9078 82.9715 12.2672 82.5687C13.2816 82.2682 14.5157 82.4725 15.5582 82.2471C17.0684 81.9205 18.6895 82.0738 20.2349 82.0738C21.1003 82.0738 21.5711 80.7678 21.5711 82.2471C21.5711 82.6638 21.8758 82.8742 21.7814 83.2987C21.6662 83.8171 21.1492 84.0868 21.1257 84.6967C21.0634 86.3158 19.7895 87.6751 19.7895 89.4229" stroke="#151515" stroke-width="2" stroke-linecap="round"/>
<path d="M22.6844 81.6284C22.6844 78.4699 22.7771 74.936 26.359 73.8339C27.6299 73.4429 29.4852 72.2371 29.7985 70.8275C30.0038 69.9032 29.8108 68.72 29.8108 67.7715C29.8108 67.2976 29.6921 66.622 29.8232 66.1631C29.8617 66.0285 31.3379 66.5725 31.5429 66.757C31.8924 67.0715 32.2023 67.0947 32.5946 67.487C33.2713 68.1637 32.55 69.34 32.3719 70.1594C31.8831 72.4078 31.9361 74.6903 31.4192 76.9517C30.9248 79.1146 31.6374 81.5332 31.2584 83.7316C30.9872 85.3046 30.2562 87.0593 30.2562 88.6434C30.2562 89.5592 29.5881 90.5726 29.5881 91.6498C29.5881 93.2328 29.7121 94.2326 28.4746 95.4357C27.3258 96.5527 25.4388 96.7147 24.3671 97.7864C23.5679 98.5856 24.39 100.729 25.0104 101.35C25.726 102.065 26.4581 103.036 26.9652 103.898C27.8157 105.344 27.3484 106.003 26.9034 107.56C26.8218 107.846 25.5529 107.652 25.3074 107.734C24.6082 107.967 24.0625 108.561 23.3525 108.798" stroke="#151515" stroke-width="2" stroke-linecap="round"/>
<path d="M29.4844 69.1106C28.5024 69.1106 27.5057 69.3621 26.5926 69.3621C26.1787 69.3621 25.6225 69.4431 25.3353 69.8021C25.0894 70.1095 24.2367 69.799 24.078 70.1164" stroke="#151515" stroke-width="2" stroke-linecap="round"/>
<path d="M22.5692 80.8037C21.9261 80.8037 21.3985 80.8214 20.781 81.0272C20.2932 81.1899 19.6826 81.5581 19.1744 81.5581" stroke="#151515" stroke-width="2" stroke-linecap="round"/>
<path d="M7.17127 84.9161C5.76041 84.9161 3.98734 86.0837 2.76154 86.7647C2.07705 87.1449 1.44821 87.3706 0.757111 87.6778C0.225961 87.9139 -0.965759 87.7606 -1.24731 88.3237" stroke="#151515" stroke-width="2" stroke-linecap="round"/>
<path d="M76.0947 59.0018C73.4543 59.0018 70.8139 59.0018 68.1734 59.0018C66.3373 59.0018 64.8255 58.9921 63.4443 60.3733C62.3181 61.4995 61.2118 62.5789 59.8738 63.4709C58.3315 64.4991 56.1537 64.8817 54.388 65.3862C53.0957 65.7554 51.1699 65.7754 50.3446 66.8758" stroke="#151515" stroke-width="2" stroke-linecap="round"/>
<path d="M181.194 80.1523C178.724 81.0854 176.254 82.0184 173.784 82.9514C172.066 83.6002 170.649 84.1253 169.845 85.9054C169.189 87.3569 168.535 88.7576 167.599 90.0648C166.519 91.5717 164.617 92.6991 163.144 93.7949C162.065 94.597 160.271 95.2963 159.888 96.6173" stroke="#151515" stroke-width="2" stroke-linecap="round"/>
<path d="M102.521 67.4436C104.552 67.4436 106.773 66.8803 108.324 65.5678C108.939 65.0472 110.152 64.3232 110.962 64.2782C111.92 64.225 112.665 63.9539 113.6 63.7506C114.273 63.6043 115.162 63.7524 115.785 63.4408C116.786 62.9401 117.724 62.4059 118.75 61.9502C119.733 61.5131 120.603 61.1283 121.63 60.8449C121.999 60.7431 122.422 60.7518 122.794 60.669C123.697 60.4684 124.438 60.0272 125.214 59.4883C126.4 58.6645 128.413 58.3651 129.359 57.2608C129.986 56.5299 131.445 56.0056 132.366 55.9879C133.158 55.9727 133.669 55.7573 134.334 55.5357C135.11 55.277 135.706 54.6999 136.502 54.4722C136.908 54.3564 137.37 54.0986 137.792 53.9112C138.287 53.6912 138.858 53.5294 139.383 53.4339C139.552 53.4031 141.13 53.124 140.505 53.124" stroke="#151515" stroke-width="2" stroke-linecap="round"/>
<path d="M205.889 54.4836C207.62 54.4836 209.517 55.4649 210.968 56.3884C212.744 57.5183 214.473 58.6791 216.095 60.0334C217.39 61.1149 219.002 62.9645 220.657 63.5373C221.719 63.9049 223.082 63.81 224.208 64.1252C225.393 64.4571 226.513 65.09 227.688 65.4891C228.262 65.6841 229.103 65.9912 229.381 66.5474" stroke="#151515" stroke-width="2" stroke-linecap="round"/>
<path d="M190.439 67.8171C188.64 67.8171 186.841 67.8171 185.042 67.8171C182.852 67.8171 180.737 66.9706 178.587 66.9706C176.059 66.9706 173.785 67.0601 171.379 66.218C169.275 65.4816 167.017 65.7007 164.818 65.7007C163.145 65.7007 161.126 65.4126 159.539 66.0299C157.684 66.7512 155.403 67.3938 153.401 67.3938C152.402 67.3938 151.329 67.1822 150.438 67.1822C149.375 67.1822 148.582 66.7589 147.475 66.7589C146.877 66.7589 144.992 66.2218 144.724 66.7589" stroke="#151515" stroke-width="2" stroke-linecap="round"/>
<path d="M246.881 85.4473C247.434 87.1888 247.987 88.9303 248.539 90.6719C248.949 91.9626 248.644 93.3586 248.704 94.7157C248.761 95.9915 248.102 96.6991 247.176 97.6655C246.58 98.2874 245.488 99.9074 245.361 100.718" stroke="#151515" stroke-width="2" stroke-linecap="round"/>
<path d="M104.337 66.5045C104.219 67.4462 99.6425 67.0731 98.7179 67.0153C96.9681 66.906 101.562 64.4611 103.315 64.4611C105.299 64.4611 107.691 63.6233 104.337 65.5963C104.033 65.7749 102.645 67.6857 103.315 67.0153C103.615 66.7162 105.581 64.3945 104.082 65.2274C102.961 65.8501 100.845 68.8127 102.294 66.2774C102.966 65.1007 105.842 64.6358 107.118 65.0003C107.913 65.2274 103.212 68.3258 104.082 66.7599C104.639 65.7562 107.081 61.2642 108.424 63.9503" stroke="#151515" stroke-width="2" stroke-linecap="round"/>
<path d="M106.444 64.4335C106.71 64.4335 106.976 64.4335 107.241 64.4335C107.647 64.4335 107.309 64.8358 107.531 65.0135C107.654 65.1114 105.986 65.966 105.792 66.1009C105.693 66.1692 104.269 67.2476 104.269 66.7533C104.269 66.1742 105.756 64.7194 106.154 64.4013C106.482 64.1389 107.548 63.2035 107.741 64.071C107.808 64.3732 107.113 65.2563 107.249 65.2954C108.552 65.6674 104.462 64.9856 103.19 65.4484C102.582 65.6695 102.023 66.0678 101.442 66.3909C101.199 66.5259 100.083 67.2877 99.8067 67.0111C99.3578 66.5623 100.184 66.6311 100.209 66.6084C102.364 64.6808 105.414 64.6539 108.007 63.8858C109.028 63.583 108.613 64.2912 107.966 64.5785C107.714 64.6905 107.433 64.9954 107.813 64.506C108.043 64.211 108.306 63.9345 108.538 63.6361C109.032 63.0007 107.837 63.5636 108.844 63.5636C109.095 63.5636 110.691 63.4754 110.141 63.7811C109.516 64.1282 109.101 64.3581 109.054 63.5636C109.043 63.3884 108.626 63.3373 109.199 63.2736C109.434 63.2475 109.713 63.0449 109.924 62.9514C110.465 62.7108 111.146 62.3491 111.744 62.6211C111.843 62.666 112.662 62.6687 112.662 62.7661C112.662 62.8842 111.715 63.2381 111.591 63.2655C111.207 63.3509 110.962 63.5484 110.616 63.6763C110.36 63.7714 109.634 64.2402 110.069 63.8536C110.533 63.4407 111.801 63.4186 112.389 63.4186C113.011 63.4186 114.124 63.646 114.708 63.3864C114.786 63.3519 115.524 63.151 115.143 63.1286C114.746 63.1052 114.4 63.1489 114.016 63.0158C113.826 62.9502 112.39 62.7594 112.759 62.5487C113.367 62.2011 113.968 62.2355 114.571 61.8962C115.028 61.6393 115.575 61.3461 116.094 61.2518C116.196 61.2332 117.157 61.3161 117.157 61.1713C117.157 60.9454 115.453 62.0796 115.296 62.3151C115.05 62.6848 114.48 63.2875 115.143 62.6936C115.564 62.3172 116.645 61.7098 117.173 61.6787C117.334 61.6693 117.956 61.6787 117.463 61.6787C116.737 61.6787 117.969 61.2085 118.124 61.131C118.685 60.8504 119.226 60.572 119.751 60.2288C119.865 60.154 120.505 59.9388 120.363 59.9388" stroke="#151515" stroke-width="2" stroke-linecap="round"/>
<path d="M57.212 115.628C57.212 114.923 57.9712 114.298 58.5131 113.876C59.0203 113.482 59.3637 112.909 59.8907 112.499C60.0558 112.37 60.5676 112.311 60.5795 112.108C60.598 111.794 60.6743 111.566 60.7411 111.266C60.8887 110.601 61.4982 110.109 61.8041 109.574C62.1597 108.951 62.6823 108.321 63.1817 107.822C63.8908 107.113 64.2139 106.381 64.7124 105.56C65.3602 104.493 65.8104 103.216 67.0084 102.617" stroke="#151515" stroke-width="2" stroke-linecap="round"/>
<path d="M67.0084 102.617C69.8755 102.617 72.7044 102.77 75.5717 102.77C77.774 102.77 79.9525 102.617 82.1622 102.617" stroke="#151515" stroke-width="2" stroke-linecap="round"/>
<path d="M80.6317 93.2803C80.6317 93.8183 80.4095 94.7471 81.0059 94.964C81.7519 95.2353 82.3155 96.2971 82.3155 97.0304C82.3155 97.8144 82.116 97.9937 81.7372 98.6377C81.5339 98.9834 81.3546 99.79 81.7372 100.134C82.6925 100.994 84.8099 99.7137 85.3003 101.087C85.798 102.48 85.5299 104.37 85.5299 105.832C85.5299 106.223 85.9899 107.286 85.5299 107.516" stroke="#151515" stroke-width="2" stroke-linecap="round"/>
<path d="M228.487 112.638C228.487 110.348 228.705 107.909 228.446 105.638C228.224 103.685 226.457 102.11 224.823 101.15C223.51 100.38 222.385 99.9806 220.891 99.8122C219.879 99.6983 218.857 99.7435 217.885 99.4416C216.508 99.0143 214.788 99.1122 213.335 99.1122C212.117 99.1122 210.969 98.6822 209.773 98.5564C208.496 98.4219 207.627 97.2319 207.962 99.4416C208.132 100.569 208.634 101.619 209.629 102.221C210.415 102.696 211.423 102.949 211.997 103.703C212.312 104.118 212.562 104.284 212.697 104.856C212.806 105.319 212.66 105.558 213.109 105.783" stroke="#151515" stroke-width="2" stroke-linecap="round"/>
<path d="M229.414 103.374C229.54 101.986 231.081 100.746 231.081 99.5446C231.081 99.0836 231.323 97.9361 230.855 97.6299C230.186 97.1927 229.026 97.1074 228.261 96.8888C227.299 96.6139 226.306 96.527 225.379 96.1476C224.747 95.8892 224.168 95.4919 223.526 95.2624C222.649 94.9491 221.416 95.1111 220.664 94.6653C218.512 93.3902 216.038 93.0873 213.664 93.6977C212.576 93.9775 212.039 94.3112 211.112 94.9536C210.202 95.5831 209.032 95.4908 209.032 96.7035" stroke="#151515" stroke-width="2" stroke-linecap="round"/>
<path d="M220.39 92.9513C220.39 91.9935 220.39 91.0358 220.39 90.078C220.39 89.0668 221.044 87.7899 220.837 86.8599C220.436 85.0524 217.13 83.2905 215.678 82.7223C213.191 81.7492 210.628 80.5553 208.322 79.2743C207.703 78.9303 206.032 78.2552 205.564 78.8273C204.466 80.1689 202.894 81.9225 202.512 83.7056C202.012 86.0401 205.391 87.2242 206.828 88.5839C207.553 89.2697 208.285 89.4663 209.127 89.912C209.66 90.1944 210.13 90.855 210.583 91.2401C211.46 91.9859 212.001 93.1242 213.035 93.6409" stroke="#151515" stroke-width="2" stroke-linecap="round"/>
<path d="M226.542 114.105C223.672 114.105 219.706 116.158 217.042 114.445C215.009 113.138 215.722 110.59 214.729 108.903C214.211 108.021 212.987 108.665 212.191 108.438C211.121 108.132 210.959 108.213 210.243 109.242C209.815 109.857 205.507 115.239 205.505 115.236" stroke="#151515" stroke-width="2" stroke-linecap="round"/>
<path d="M212.518 110.26C212.459 110.791 211.698 111.966 211.387 112.472C211.028 113.054 211.113 113.474 210.582 114.005C209.725 114.862 208.973 115.54 208.446 116.594" stroke="#151515" stroke-width="2" stroke-linecap="round"/>
<path d="M205.279 115.915C205.279 116.915 208.617 117.727 209.451 118.278C210.818 119.18 211.746 119.763 213.247 120.263C214.235 120.593 215.193 120.822 216.137 121.294C216.788 121.619 217.315 122.741 217.67 123.38C218.284 124.486 219.549 124.284 220.661 124.284C222.377 124.284 224.411 124.588 226.09 124.234C226.825 124.079 233.324 124.05 232.876 123.153" stroke="#151515" stroke-width="2" stroke-linecap="round"/>
<path d="M233.102 122.475C230.584 122.475 228.089 122.511 225.612 122.236C223.178 121.966 220.767 120.804 218.399 120.665C217.653 120.621 217.722 119.082 216.928 119.082C216.635 119.082 214.932 118.934 214.78 118.742C214.455 118.337 212.415 117.947 211.839 117.674C211.188 117.366 209.63 116.927 209.351 116.367" stroke="#151515" stroke-width="2" stroke-linecap="round"/>
<path d="M178.947 115.052C178.018 115.052 177.053 115.009 176.382 115.754C175.974 116.207 176.028 116.96 175.632 117.399C175.25 117.823 174.735 118.845 174.592 119.419C174.231 120.864 173.499 122.59 172.305 123.545C171.999 123.79 171.979 124.37 171.979 124.743C171.979 125.213 172.779 125.159 172.85 125.723C172.969 126.677 174.025 127.029 174.81 127.029C175.535 127.029 177.4 126.622 177.858 126.049C178.415 125.353 180.256 125.6 181.016 125.178C181.707 124.794 183.125 124.989 183.52 124.198" stroke="#151515" stroke-width="2" stroke-linecap="round"/>
<path d="M200.07 117.448C198.646 117.448 197.847 117.758 197.131 116.468C196.593 115.499 196.32 114.326 195.812 113.31C195.538 112.762 195.16 112.273 195.05 111.665C194.961 111.176 194.987 110.124 194.675 109.777C193.88 108.894 193.63 107.179 193.102 106.124" stroke="#151515" stroke-width="2" stroke-linecap="round"/>
<path d="M174.297 129.763C174.297 130.255 174.601 133.006 173.933 133.043C172.747 133.109 172.14 133.168 171.382 132.314C170.751 131.605 170.016 131.028 169.377 130.31C169.143 130.046 168.972 129.712 168.648 129.54C168.215 129.311 167.595 129.292 167.231 128.994C166.42 128.33 165.215 127.592 164.275 127.07C163.815 126.814 163.293 126.761 162.817 126.524C162.218 126.224 161.905 125.529 161.542 124.985C160.842 123.934 160.262 123.017 159.355 122.11C158.567 121.322 158.278 120.304 157.533 119.559" stroke="#151515" stroke-width="2" stroke-linecap="round"/>
<path d="M157.533 119.559C157.533 117.881 156.592 115.934 155.853 114.457C155.675 114.102 155.164 113.866 155.164 113.455C155.164 112.545 156 111.435 156.622 110.812C156.909 110.525 157.878 111.273 158.272 111.45C159.485 111.996 161.096 112.212 162.413 112.27C163.231 112.307 163.56 112.564 164.387 112.169C165.394 111.687 166.156 110.708 167.282 110.458C168.867 110.106 170.531 108.808 172.202 108.808C172.779 108.808 173.356 108.808 173.933 108.808C174.553 108.808 174.94 109.296 175.482 109.537C176.1 109.812 176.596 109.732 176.342 110.59C176.216 111.015 176.395 112.159 176.028 112.452C175.501 112.875 176.666 114.217 176.666 114.821" stroke="#151515" stroke-width="2" stroke-linecap="round"/>
<path d="M182.186 86.0955C182.186 90.0208 182.579 93.939 182.579 97.8972C182.579 101.075 182.509 104.217 182.95 107.299C183.675 112.377 182.88 118.396 181.401 123.202C179.431 129.604 177.106 135.218 174.027 141.068C173.261 142.524 171.892 145.081 170.406 145.867C169.579 146.305 165.929 147.82 165.694 147.351" stroke="#151515" stroke-width="2" stroke-linecap="round"/>
<path d="M185.302 86.1052C185.302 97.0492 185.302 108.047 185.302 118.923C185.302 121.764 184.605 124.614 183.759 127.322C183.332 128.688 182.77 130 182.279 131.327C181.668 132.975 180.359 134.338 179.754 135.971C179.258 137.311 178.938 138.869 178.165 140.085C177.68 140.847 177.097 142.032 176.902 142.905C176.502 144.706 174.643 146.246 174.643 148.095" stroke="#151515" stroke-width="2" stroke-linecap="round"/>
<path d="M181.807 85.9622C182.922 85.9622 183.908 86.1132 184.979 86.1132" stroke="#151515" stroke-width="2" stroke-linecap="round"/>
<path d="M199.581 123.635C199.581 125.747 198.553 127.056 197.641 128.941C196.736 130.811 195.95 132.902 194.696 134.575C193.733 135.858 192.707 137.031 191.587 138.151C190.787 138.951 189.187 139.294 188.115 139.624C186.702 140.059 185.349 140.943 184.036 141.599C183.317 141.959 182.526 141.931 181.815 142.254C180.604 142.804 179.033 142.99 177.701 142.99" stroke="#151515" stroke-width="2" stroke-linecap="round"/>
<path d="M152.661 80.2424C155.767 80.2424 158.873 80.2424 161.98 80.2424C164.199 80.2424 166.603 81.3937 168.796 80.7084C172.819 79.4511 176.739 81.1743 180.789 81.1743C181.777 81.1743 182.721 80.7711 183.654 80.484C184.751 80.1463 185.976 80.1995 187.071 79.8628C189.324 79.1695 191.486 79.3106 193.904 79.3106C195.593 79.3106 203.725 78.4355 204.224 79.9318" stroke="#151515" stroke-width="2" stroke-linecap="round"/>
<path d="M168.178 82.3737C166.176 82.3737 164.955 84.0615 164.245 85.7537C163.368 87.8466 162.759 90.0569 161.541 91.9914C161.223 92.4968 160.961 93.3222 160.435 93.6507C159.331 94.3404 158.508 95.2772 157.116 95.8631C155.83 96.4047 154.32 96.8567 152.968 97.3073" stroke="#151515" stroke-width="2" stroke-linecap="round"/>
<path d="M151.862 98.1369C151.862 95.0568 153.574 94.7659 155.457 92.8824C156.15 92.1893 157.135 91.8362 157.885 91.1617C158.401 90.6967 158.48 90.0136 158.991 89.5024C160.219 88.2748 160.137 86.2454 161.326 84.924C162.693 83.4054 164.287 83.2032 166.243 83.2032" stroke="#151515" stroke-width="2" stroke-linecap="round"/>
<path d="M163.165 91.4553C164.458 91.4553 166.179 91.1378 167.396 91.5758C168.32 91.9086 168.614 92.8907 169.38 93.2309C170.103 93.5525 171.022 94.1817 171.649 94.6558C172.472 95.2785 173.269 95.9863 174.016 96.6945C174.156 96.8265 174.431 97.1559 174.608 97.1768C175.767 97.3131 177.054 97.6418 178.159 97.0891C178.762 96.7878 181.316 95.686 181.316 95.0065" stroke="#151515" stroke-width="2" stroke-linecap="round"/>
<path d="M185.656 90.6661C186.023 90.6204 186.546 89.8218 186.84 89.592C187.605 88.9941 188.399 88.3956 189.186 87.8273C189.883 87.3238 190.079 87.1286 190.885 86.8189C191.494 86.5847 192.17 86.6981 192.803 86.4791C193.753 86.1502 194.751 86.161 195.674 85.8873C197.206 85.4335 197.362 84.1284 198.963 85.4379C199.547 85.9161 201.851 85.8985 202.229 85.1419" stroke="#151515" stroke-width="2" stroke-linecap="round"/>
<path d="M98.444 106.767C95.283 109.928 92.1075 113.066 89.6221 116.819C88.2979 118.819 86.7972 120.887 84.8136 122.271C81.6466 124.482 79.4067 127.363 76.8058 130.109C75.8444 131.123 74.7585 131.986 73.7768 132.967C72.8535 133.891 72.1959 135.017 71.259 135.902C70.2517 136.853 69.2037 138.34 67.946 138.968" stroke="#151515" stroke-width="2" stroke-linecap="round"/>
<path d="M96.2292 104.722C96.1537 105.062 95.5726 105.383 95.3394 105.612C94.6628 106.277 93.9504 106.888 93.257 107.533C91.7348 108.951 90.1294 110.291 88.988 112.058C87.9325 113.692 86.4404 114.843 85.1923 116.308C84.3393 117.309 83.5977 118.33 82.807 119.375C81.5637 121.018 80.0518 122.595 78.5097 123.966C77.2017 125.128 76.011 126.474 74.7613 127.723C73.5886 128.896 72.2467 129.878 71.0887 131.036C69.9727 132.152 69.1191 133.536 67.984 134.671C66.7891 135.866 65.5709 136.914 64.3682 138.117" stroke="#151515" stroke-width="2" stroke-linecap="round"/>
<path d="M98.2737 107.278C97.7089 107.215 97.535 106.651 97.2135 106.293C96.9076 105.953 96.4161 105.777 96.2291 105.404" stroke="#151515" stroke-width="2" stroke-linecap="round"/>
<path d="M95.7393 105.446C96.0538 105.407 96.873 104.731 97.2156 104.538C97.6168 104.313 97.9749 104.047 98.3801 103.832C99.4528 103.265 100.668 104.104 101.681 104.584C102.185 104.823 102.723 105.024 103.167 105.373C103.591 105.706 103.835 106.294 104.322 106.565C105.043 106.966 105.699 107.538 106.339 108.05C107.043 108.613 108.239 107.767 108.614 107.225C109.472 105.985 110.089 104.806 110.759 103.466C111.547 101.89 112.439 100.185 113.4 98.7157C113.759 98.1669 113.987 97.3127 114.556 97.0284" stroke="#151515" stroke-width="2" stroke-linecap="round"/>
<path d="M114.556 97.0284C117.463 97.0284 118.874 99.5528 120.461 101.65C121.423 102.921 122.767 103.754 123.881 104.869C124.747 105.734 125.687 106.55 126.357 107.592C126.641 108.033 126.973 108.453 127.228 108.912C127.346 109.124 127.43 109.658 127.43 109.243" stroke="#151515" stroke-width="2" stroke-linecap="round"/>
<path d="M127.43 108.582C127.43 111.756 125.377 114.2 123.459 116.597C121.883 118.567 120.363 120.591 118.847 122.612C117.438 124.491 116.365 126.589 114.968 128.472C113.87 129.952 112.378 130.997 111.254 132.433C110.462 133.446 109.681 134.455 108.907 135.486C108.157 136.486 107.501 137.589 106.715 138.549C106.33 139.02 105.952 140.201 105.478 140.438" stroke="#151515" stroke-width="2" stroke-linecap="round"/>
<path d="M125.773 106.15C125.817 105.759 126.207 105.622 126.501 105.422C127.511 104.736 128.46 103.969 129.389 103.18C131.413 101.46 133.126 99.4806 135.024 97.6506C135.639 97.0572 137.556 95.5845 138.452 95.5845" stroke="#151515" stroke-width="2" stroke-linecap="round"/>
<path d="M138.452 95.5845C139.566 95.7701 140.393 96.7657 141.293 97.3571C142.023 97.8369 142.772 98.2321 143.476 98.7541C144.252 99.3284 144.689 100.759 145.648 101.079C146.173 101.254 149.208 103.635 149.44 103.403" stroke="#151515" stroke-width="2" stroke-linecap="round"/>
<path d="M149.229 104.671C147.674 105.392 146.389 107.2 145.378 108.521C143.567 110.889 141.647 113.255 139.72 115.53C137.383 118.287 134.741 121.119 132.101 123.595C131.346 124.302 130.161 125.31 129.624 126.224C129.386 126.629 129.111 127.302 128.732 127.492" stroke="#151515" stroke-width="2" stroke-linecap="round"/>
<path d="M145.854 108.61C145.854 110.367 146.833 112.238 147.631 113.775C148.087 114.654 148.859 115.758 149.544 116.481C149.9 116.857 150.282 116.921 150.282 117.465" stroke="#151515" stroke-width="2" stroke-linecap="round"/>
<path d="M150.282 117.465C150.205 118.159 149.422 118.766 149.066 119.323C148.408 120.35 147.951 121.51 147.453 122.617C146.925 123.79 146.497 124.884 146.1 126.074" stroke="#151515" stroke-width="2" stroke-linecap="round"/>
<path d="M56.5862 115.858C56.5862 116.804 56.4712 117.962 57.7436 117.962C58.2696 117.962 58.7957 117.962 59.3218 117.962C59.837 117.962 60.4919 117.148 60.9117 116.805C61.7055 116.155 62.5376 115.858 63.5304 115.858C64.5225 115.858 64.8479 116.281 65.1086 115.238C65.2765 114.566 65.3232 113.895 66.0555 113.707C67.3569 113.372 68.8098 113.543 70.1472 113.543C71.4488 113.543 72.7503 113.543 74.0519 113.543C74.9027 113.543 75.966 113.593 76.6706 113.017C77.5037 112.335 77.4152 112.28 78.6346 112.28C80.01 112.28 81.3542 112.491 82.6795 112.491C84.0183 112.491 84.3867 111.322 85.4151 110.807" stroke="#151515" stroke-width="2" stroke-linecap="round"/>
<path d="M85.415 102.601C85.415 100.724 85.5385 98.2349 86.5841 96.5918C86.8741 96.136 87.626 94.8148 88.2558 94.8148C89.0976 94.8148 89.9393 94.8148 90.781 94.8148C91.8301 94.8148 92.8782 94.8775 93.9024 94.6044C94.9384 94.3281 96.1137 93.9589 97.1991 94.2303C97.7781 94.375 98.3542 94.7535 98.8826 95.0252C99.2122 95.1947 99.8386 95.3039 100.098 95.4928C100.677 95.9134 100.776 95.6492 100.776 96.545C100.776 97.301 100.776 98.057 100.776 98.813C100.776 99.0626 101.133 100.393 101.314 100.496C101.897 100.829 102.295 101.338 102.998 101.338C103.699 101.338 104.4 101.338 105.102 101.338C106.453 101.338 106.665 101.971 107.463 102.858C107.69 103.109 108.983 105.413 108.983 104.705" stroke="#151515" stroke-width="2" stroke-linecap="round"/>
<path d="M90.6758 109.545C89.4833 109.545 88.2909 109.545 87.0985 109.545C86.5724 109.545 86.0463 109.545 85.5202 109.545C84.9647 109.545 85.2168 109.298 85.415 108.703" stroke="#151515" stroke-width="2" stroke-linecap="round"/>
<path d="M267.624 65.4124C267.624 66.1758 268.534 67.2462 269.057 67.8005C269.633 68.4104 269.787 69.5637 270.49 70.0028C271.076 70.3693 271.426 71.5725 271.923 72.0991C272.511 72.7222 273.06 73.6211 273.475 74.3678C274.269 75.7966 275.177 76.9566 276.115 78.3215C276.426 78.773 279.126 82.5685 279.326 82.368" stroke="#151515" stroke-width="2" stroke-linecap="round"/>
<path d="M247.565 107.201C244.225 107.201 241.91 105.494 239.398 103.44C235.977 100.64 232.094 98.3249 228.965 95.1959C224.621 90.8523 220.668 86.1583 216.96 81.2847C215.409 79.2468 214.168 76.8214 212.915 74.5867C210.829 70.8632 208.445 67.3307 206.243 63.6896C205.053 61.7215 203.582 59.8106 202.585 57.816" stroke="#151515" stroke-width="2" stroke-linecap="round"/>
<path d="M162.831 69.9418C161.218 69.9418 160.63 70.018 159.354 70.8692" stroke="#151515" stroke-width="2" stroke-linecap="round"/>
<path d="M198.18 59.4391C198.18 62.3048 201.888 64.1314 202.997 66.6265C203.463 67.675 203.458 68.8225 203.925 69.8725C204.104 70.2754 203.883 71.2361 204.337 71.4954C204.833 71.7789 205.792 73.2964 206.011 73.8655C206.324 74.679 207.13 76.1846 207.918 76.6477C209.309 77.4664 210.234 79.7786 210.88 81.2333C211.305 82.1897 211.738 82.9413 212.323 83.8352C213.395 85.4743 214.816 86.2771 216.136 87.5963C217.175 88.6358 218.221 89.6606 219.15 90.8551C219.447 91.2374 219.937 91.9476 219.974 92.4137C220.05 93.3663 220.935 93.7987 221.365 94.5519C221.689 95.118 222.42 96.1646 223.104 96.3166C224.621 96.6536 226.001 99.0848 227.045 100.129C227.502 100.586 227.756 101.356 228.321 101.688C229.342 102.289 230.244 103.223 231.232 103.852C232.577 104.708 234.496 105.261 235.624 106.389C236.585 107.35 238.501 107.698 239.218 108.953C239.734 109.856 240.935 110.009 241.536 110.91" stroke="#151515" stroke-width="2" stroke-linecap="round"/>
<path d="M237.938 114.808C239.842 114.808 240.544 113.236 241.988 112.273C243.203 111.463 244.513 110.377 245.54 109.349C246.031 108.858 246.522 108.367 247.013 107.876C247.443 107.446 247.994 106.309 248.66 106.23C249.705 106.107 250.399 104.416 251.389 104.086" stroke="#151515" stroke-width="2" stroke-linecap="round"/>
<path d="M226.061 134.536C228.931 134.536 230.317 132.669 232.689 131.417C234.554 130.432 235.935 128.877 237.757 127.865C239.929 126.658 242.547 126.559 244.775 125.569C246.577 124.768 248.396 124.079 250.234 123.327C251.78 122.694 253.53 122.526 255.107 121.962C257.18 121.222 259.142 120.337 261.161 119.428C263.331 118.451 265.415 117.251 267.594 116.298C268.368 115.96 269.408 115.739 270.074 115.193C270.475 114.866 271.456 114.9 271.677 114.457" stroke="#151515" stroke-width="2" stroke-linecap="round"/>
<path d="M271.677 114.457C270.729 114.457 269.939 114.255 269.045 114.056C268.217 113.872 267.5 113.287 266.609 113.287" stroke="#151515" stroke-width="2" stroke-linecap="round"/>
<path d="M266.316 113.55C263.138 113.55 261.006 116.062 258.255 117.285C257.346 117.689 256.287 117.928 255.339 118.266C254.445 118.586 253.713 119.17 252.853 119.553C251.894 119.978 250.763 120.016 249.851 120.448C248.698 120.994 247.497 121.604 246.25 121.915C245.236 122.169 244.26 122.534 243.258 122.821C242.437 123.055 241.645 123.84 240.752 123.84C239.433 123.84 237.935 124.689 236.855 125.384C235.982 125.945 235.056 126.343 234.158 126.842C233.355 127.288 232.554 127.7 231.748 128.147C230.402 128.892 228.954 129.24 227.555 129.976C224.284 131.698 220.849 133.196 217.608 134.817" stroke="#151515" stroke-width="2" stroke-linecap="round"/>
<path d="M346.882 122.714C339.842 122.714 332.803 122.714 325.763 122.714C322.891 122.714 320.269 122.764 317.447 123.266C315.004 123.7 311.861 123.82 309.614 124.819C308.138 125.475 305.64 125.509 304.024 125.509C303.134 125.509 301.842 125.635 300.987 125.888C299.942 126.198 298.65 125.842 297.674 126.285C295.802 127.137 292.967 127.021 290.911 127.441C287.048 128.231 283.605 128.187 279.8 129.546" stroke="#151515" stroke-width="2" stroke-linecap="round"/>
<path d="M69.354 96.6472C69.354 95.4828 69.5736 94.0606 69.2178 92.9489C68.9277 92.0422 68.3362 90.3097 68.7868 89.296C69.0731 88.6517 69.3353 87.5676 69.8078 87.0952C70.4746 86.4283 71.1918 86.1142 71.1918 85.212C71.1918 84.9166 71.035 84.0301 71.2372 83.828C71.4191 83.6461 72.7757 83.5856 73.0296 83.5784C73.9979 83.5507 74.9721 83.4251 75.8884 83.3742C77.6455 83.2766 79.8065 83.655 80.585 85.212" stroke="#151515" stroke-width="2" stroke-linecap="round"/>
<path d="M9.82395 116.945C8.26304 116.945 6.71127 117.046 5.16709 117.081C4.78591 117.09 4.24479 117.085 4.24479 117.52C4.24479 118.12 4.1705 118.671 4.10871 119.258C4.07845 119.546 3.05266 119.664 2.74794 119.833C1.95023 120.276 1.12959 120.312 0.268312 120.589C-0.593827 120.866 -1.48411 121.3 -2.39275 121.3C-3.248 121.3 -3.51161 121.278 -3.51161 122.222C-3.51161 122.983 -3.79877 123.416 -4.29783 123.915C-4.51398 124.131 -5.53039 124.746 -5.68884 124.429" stroke="#151515" stroke-width="2" stroke-linecap="round"/>
<path d="M9.82397 117.898V119.123" stroke="#151515" stroke-width="2" stroke-linecap="round"/>
<path d="M9.41582 119.394C9.41582 119.803 9.41582 120.211 9.41582 120.619C9.41582 121.217 9.34796 121.195 8.80347 121.027C7.82097 120.725 6.63709 120.891 5.61322 120.891C4.97567 120.891 4.33813 120.891 3.70058 120.891C2.96298 120.891 3.65009 120.312 3.83666 119.939" stroke="#151515" stroke-width="2" stroke-linecap="round"/>
<path d="M8.73535 121.027V123.341" stroke="#151515" stroke-width="2" stroke-linecap="round"/>
<path d="M8.46313 125.11C5.82739 125.11 3.22298 125.263 0.646259 124.641C-0.145341 124.45 -1.06444 124.565 -1.87873 124.565C-2.62591 124.565 -2.69519 124.579 -2.69519 123.817C-2.69519 123.295 -2.69519 122.774 -2.69519 122.252" stroke="#151515" stroke-width="2" stroke-linecap="round"/>
</svg>
