{
	"asset":{
		"generator":"Khronos glTF Blender I/O v4.0.44",
		"version":"2.0"
	},
	"scene":0,
	"scenes":[
		{
			"name":"Scene",
			"nodes":[
				0
			]
		}
	],
	"nodes":[
		{
			"mesh":0,
			"name":"Plane"
		}
	],
	"materials":[
		{
			"alphaCutoff":0.9597315192222595,
			"alphaMode":"MASK",
			"doubleSided":true,
			"name":"Material.002",
			"pbrMetallicRoughness":{
				"baseColorTexture":{
					"index":0
				},
				"metallicFactor":0
			}
		}
	],
	"meshes":[
		{
			"name":"Plane.001",
			"primitives":[
				{
					"attributes":{
						"POSITION":0,
						"NORMAL":1,
						"TEXCOORD_0":2
					},
					"indices":3,
					"material":0
				}
			]
		}
	],
	"textures":[
		{
			"sampler":0,
			"source":0
		}
	],
	"images":[
		{
			"mimeType":"image/png",
			"name":"TICKET",
			"uri":"TICKET.png"
		}
	],
	"accessors":[
		{
			"bufferView":0,
			"componentType":5126,
			"count":1046,
			"max":[
				1.882064938545227,
				0.02823045291006565,
				1.0011086463928223
			],
			"min":[
				-1.000205397605896,
				-0.04283006116747856,
				-1.0003063678741455
			],
			"type":"VEC3"
		},
		{
			"bufferView":1,
			"componentType":5126,
			"count":1046,
			"type":"VEC3"
		},
		{
			"bufferView":2,
			"componentType":5126,
			"count":1046,
			"type":"VEC2"
		},
		{
			"bufferView":3,
			"componentType":5123,
			"count":1620,
			"type":"SCALAR"
		}
	],
	"bufferViews":[
		{
			"buffer":0,
			"byteLength":12552,
			"byteOffset":0,
			"target":34962
		},
		{
			"buffer":0,
			"byteLength":12552,
			"byteOffset":12552,
			"target":34962
		},
		{
			"buffer":0,
			"byteLength":8368,
			"byteOffset":25104,
			"target":34962
		},
		{
			"buffer":0,
			"byteLength":3240,
			"byteOffset":33472,
			"target":34963
		}
	],
	"samplers":[
		{
			"magFilter":9729,
			"minFilter":9987
		}
	],
	"buffers":[
		{
			"byteLength":36712,
			"uri":"Ticket.bin"
		}
	]
}
